<svg width="43" height="43" viewBox="0 0 43 43" fill="none" xmlns="http://www.w3.org/2000/svg">
<g filter="url(#filter0_d_12082_29881)">
<rect x="4" width="35" height="35" rx="14" fill="#D9D9D9"/>
<path d="M32.5186 19.1484C33.0708 19.1484 33.5186 18.7007 33.5186 18.1484C33.5186 17.5962 33.0708 17.1484 32.5186 17.1484V19.1484ZM9.77441 17.4413C9.38389 17.8319 9.38389 18.465 9.77441 18.8555L16.1384 25.2195C16.5289 25.61 17.1621 25.61 17.5526 25.2195C17.9431 24.829 17.9431 24.1958 17.5526 23.8053L11.8957 18.1484L17.5526 12.4916C17.9431 12.1011 17.9431 11.4679 17.5526 11.0774C17.1621 10.6868 16.5289 10.6868 16.1384 11.0774L9.77441 17.4413ZM32.5186 18.1484V17.1484L10.4815 17.1484V18.1484V19.1484L32.5186 19.1484V18.1484Z" fill="#DA0037"/>
</g>
<defs>
<filter id="filter0_d_12082_29881" x="0" y="0" width="43" height="43" filterUnits="userSpaceOnUse" color-interpolation-filters="sRGB">
<feFlood flood-opacity="0" result="BackgroundImageFix"/>
<feColorMatrix in="SourceAlpha" type="matrix" values="0 0 0 0 0 0 0 0 0 0 0 0 0 0 0 0 0 0 127 0" result="hardAlpha"/>
<feOffset dy="4"/>
<feGaussianBlur stdDeviation="2"/>
<feComposite in2="hardAlpha" operator="out"/>
<feColorMatrix type="matrix" values="0 0 0 0 0 0 0 0 0 0 0 0 0 0 0 0 0 0 0.25 0"/>
<feBlend mode="normal" in2="BackgroundImageFix" result="effect1_dropShadow_12082_29881"/>
<feBlend mode="normal" in="SourceGraphic" in2="effect1_dropShadow_12082_29881" result="shape"/>
</filter>
</defs>
</svg>
