<svg width="35" height="35" viewBox="0 0 35 35" fill="none" xmlns="http://www.w3.org/2000/svg">
<path d="M24.0084 19C24.5607 18.9953 25.0046 18.5438 25 17.9916C24.9953 17.4393 24.5438 16.9954 23.9916 17L24.0084 19ZM5.76846 17.4468C5.38125 17.8406 5.3866 18.4738 5.78041 18.861L12.1979 25.171C12.5917 25.5582 13.2248 25.5529 13.612 25.159C13.9993 24.7652 13.9939 24.1321 13.6001 23.7449L7.89568 18.136L13.5046 12.4316C13.8918 12.0378 13.8864 11.4046 13.4926 11.0174C13.0988 10.6302 12.4657 10.6356 12.0785 11.0294L5.76846 17.4468ZM24 18L23.9916 17L6.47307 17.148L6.48152 18.1479L6.48996 19.1479L24.0084 19L24 18Z" fill="#DA0037"/>
</svg>
