<svg width="40" height="40" viewBox="0 0 40 40" fill="none" xmlns="http://www.w3.org/2000/svg">
<g clip-path="url(#clip0_12388_49926)">
<path d="M19.9997 3.33325C10.7997 3.33325 3.33301 10.7999 3.33301 19.9999C3.33301 29.1999 10.7997 36.6666 19.9997 36.6666C29.1997 36.6666 36.6663 29.1999 36.6663 19.9999C36.6663 10.7999 29.1997 3.33325 19.9997 3.33325ZM19.9997 30.8333C18.6163 30.8333 17.4997 29.7166 17.4997 28.3333H22.4997C22.4997 29.7166 21.383 30.8333 19.9997 30.8333ZM28.333 26.6666H11.6663V24.9999L13.333 23.3333V18.9833C13.333 15.4499 15.0497 12.4499 18.333 11.6666V10.8333C18.333 9.88325 19.0497 9.16659 19.9997 9.16659C20.9497 9.16659 21.6663 9.88325 21.6663 10.8333V11.6666C24.9497 12.4499 26.6663 15.4666 26.6663 18.9833V23.3333L28.333 24.9999V26.6666Z" fill="white"/>
</g>
<defs>
<clipPath id="clip0_12388_49926">
<rect width="40" height="40" fill="white"/>
</clipPath>
</defs>
</svg>
