<svg width="328" height="56" viewBox="0 0 328 56" fill="none" xmlns="http://www.w3.org/2000/svg">
<g filter="url(#filter0_d_12252_94622)">
<path d="M29 13L41 31L29 47H69V13H29Z" fill="black" stroke="#B9B9B9" stroke-linejoin="round"/>
<path d="M69 34.5H50L69 47.5V34.5Z" fill="#B9B9B9" stroke="#B9B9B9" stroke-linejoin="round"/>
<path d="M296 13L284 31L296 47H256V13H296Z" fill="black" stroke="#B9B9B9" stroke-linejoin="round"/>
<path d="M256 34.5H275L256 47.5V34.5Z" fill="#B9B9B9"/>
<path d="M275.5 0.5H49.5V34.5H275.5V0.5Z" fill="black" stroke="#B9B9B9" stroke-linejoin="round"/>
<path d="M79.0517 20.2422C79.1984 20.2422 79.3284 20.2989 79.4417 20.4122L80.5017 21.5622C79.9151 22.2889 79.1917 22.8456 78.3317 23.2322C77.4784 23.6189 76.4517 23.8122 75.2517 23.8122C74.1784 23.8122 73.2117 23.6289 72.3517 23.2622C71.4984 22.8956 70.7684 22.3856 70.1617 21.7322C69.5551 21.0789 69.0884 20.2989 68.7617 19.3922C68.4417 18.4856 68.2817 17.4956 68.2817 16.4222C68.2817 15.3356 68.4551 14.3422 68.8017 13.4422C69.1484 12.5356 69.6351 11.7556 70.2617 11.1022C70.8951 10.4489 71.6484 9.94223 72.5217 9.58223C73.3951 9.21557 74.3617 9.03223 75.4217 9.03223C76.4751 9.03223 77.4084 9.20557 78.2217 9.55223C79.0417 9.8989 79.7384 10.3522 80.3117 10.9122L79.4117 12.1622C79.3584 12.2422 79.2884 12.3122 79.2017 12.3722C79.1217 12.4322 79.0084 12.4622 78.8617 12.4622C78.7617 12.4622 78.6584 12.4356 78.5517 12.3822C78.4451 12.3222 78.3284 12.2522 78.2017 12.1722C78.0751 12.0856 77.9284 11.9922 77.7617 11.8922C77.5951 11.7922 77.4017 11.7022 77.1817 11.6222C76.9617 11.5356 76.7051 11.4656 76.4117 11.4122C76.1251 11.3522 75.7917 11.3222 75.4117 11.3222C74.7651 11.3222 74.1717 11.4389 73.6317 11.6722C73.0984 11.8989 72.6384 12.2322 72.2517 12.6722C71.8651 13.1056 71.5651 13.6389 71.3517 14.2722C71.1384 14.8989 71.0317 15.6156 71.0317 16.4222C71.0317 17.2356 71.1451 17.9589 71.3717 18.5922C71.6051 19.2256 71.9184 19.7589 72.3117 20.1922C72.7051 20.6256 73.1684 20.9589 73.7017 21.1922C74.2351 21.4189 74.8084 21.5322 75.4217 21.5322C75.7884 21.5322 76.1184 21.5122 76.4117 21.4722C76.7117 21.4322 76.9851 21.3689 77.2317 21.2822C77.4851 21.1956 77.7217 21.0856 77.9417 20.9522C78.1684 20.8122 78.3917 20.6422 78.6117 20.4422C78.6784 20.3822 78.7484 20.3356 78.8217 20.3022C78.8951 20.2622 78.9717 20.2422 79.0517 20.2422ZM95.8219 16.4222C95.8219 17.4822 95.6452 18.4656 95.2919 19.3722C94.9452 20.2722 94.4519 21.0522 93.8119 21.7122C93.1719 22.3722 92.4019 22.8889 91.5019 23.2622C90.6019 23.6289 89.6019 23.8122 88.5019 23.8122C87.4085 23.8122 86.4119 23.6289 85.5119 23.2622C84.6119 22.8889 83.8385 22.3722 83.1919 21.7122C82.5519 21.0522 82.0552 20.2722 81.7019 19.3722C81.3485 18.4656 81.1719 17.4822 81.1719 16.4222C81.1719 15.3622 81.3485 14.3822 81.7019 13.4822C82.0552 12.5756 82.5519 11.7922 83.1919 11.1322C83.8385 10.4722 84.6119 9.9589 85.5119 9.59223C86.4119 9.2189 87.4085 9.03223 88.5019 9.03223C89.2352 9.03223 89.9252 9.1189 90.5719 9.29223C91.2185 9.4589 91.8119 9.6989 92.3519 10.0122C92.8919 10.3189 93.3752 10.6956 93.8019 11.1422C94.2352 11.5822 94.6019 12.0756 94.9019 12.6222C95.2019 13.1689 95.4285 13.7622 95.5819 14.4022C95.7419 15.0422 95.8219 15.7156 95.8219 16.4222ZM93.0719 16.4222C93.0719 15.6289 92.9652 14.9189 92.7519 14.2922C92.5385 13.6589 92.2352 13.1222 91.8419 12.6822C91.4485 12.2422 90.9685 11.9056 90.4019 11.6722C89.8419 11.4389 89.2085 11.3222 88.5019 11.3222C87.7952 11.3222 87.1585 11.4389 86.5919 11.6722C86.0319 11.9056 85.5519 12.2422 85.1519 12.6822C84.7585 13.1222 84.4552 13.6589 84.2419 14.2922C84.0285 14.9189 83.9219 15.6289 83.9219 16.4222C83.9219 17.2156 84.0285 17.9289 84.2419 18.5622C84.4552 19.1889 84.7585 19.7222 85.1519 20.1622C85.5519 20.5956 86.0319 20.9289 86.5919 21.1622C87.1585 21.3956 87.7952 21.5122 88.5019 21.5122C89.2085 21.5122 89.8419 21.3956 90.4019 21.1622C90.9685 20.9289 91.4485 20.5956 91.8419 20.1622C92.2352 19.7222 92.5385 19.1889 92.7519 18.5622C92.9652 17.9289 93.0719 17.2156 93.0719 16.4222ZM110.374 9.19223V23.6522H108.994C108.781 23.6522 108.601 23.6189 108.454 23.5522C108.314 23.4789 108.178 23.3589 108.044 23.1922L100.494 13.5522C100.534 13.9922 100.554 14.3989 100.554 14.7722V23.6522H98.1842V9.19223H99.5942C99.7076 9.19223 99.8042 9.1989 99.8842 9.21223C99.9709 9.2189 100.044 9.2389 100.104 9.27223C100.171 9.2989 100.234 9.34223 100.294 9.40223C100.354 9.45557 100.421 9.5289 100.494 9.62223L108.074 19.3022C108.054 19.0689 108.038 18.8389 108.024 18.6122C108.011 18.3856 108.004 18.1756 108.004 17.9822V9.19223H110.374ZM125.514 16.4022V22.2522C124.781 22.7922 123.998 23.1889 123.164 23.4422C122.338 23.6889 121.451 23.8122 120.504 23.8122C119.324 23.8122 118.254 23.6289 117.294 23.2622C116.341 22.8956 115.524 22.3856 114.844 21.7322C114.171 21.0789 113.651 20.2989 113.284 19.3922C112.918 18.4856 112.734 17.4956 112.734 16.4222C112.734 15.3356 112.911 14.3389 113.264 13.4322C113.618 12.5256 114.118 11.7456 114.764 11.0922C115.418 10.4389 116.208 9.93223 117.134 9.57223C118.061 9.21223 119.101 9.03223 120.254 9.03223C120.841 9.03223 121.388 9.0789 121.894 9.17223C122.408 9.26557 122.881 9.39557 123.314 9.56223C123.754 9.72223 124.154 9.9189 124.514 10.1522C124.874 10.3856 125.204 10.6422 125.504 10.9222L124.734 12.1422C124.614 12.3356 124.458 12.4556 124.264 12.5022C124.071 12.5422 123.861 12.4922 123.634 12.3522C123.414 12.2256 123.194 12.0989 122.974 11.9722C122.754 11.8456 122.508 11.7356 122.234 11.6422C121.968 11.5489 121.664 11.4722 121.324 11.4122C120.991 11.3522 120.604 11.3222 120.164 11.3222C119.451 11.3222 118.804 11.4422 118.224 11.6822C117.651 11.9222 117.161 12.2656 116.754 12.7122C116.348 13.1589 116.034 13.6956 115.814 14.3222C115.594 14.9489 115.484 15.6489 115.484 16.4222C115.484 17.2489 115.601 17.9889 115.834 18.6422C116.074 19.2889 116.408 19.8389 116.834 20.2922C117.268 20.7389 117.788 21.0822 118.394 21.3222C119.001 21.5556 119.678 21.6722 120.424 21.6722C120.958 21.6722 121.434 21.6156 121.854 21.5022C122.274 21.3889 122.684 21.2356 123.084 21.0422V18.4222H121.264C121.091 18.4222 120.954 18.3756 120.854 18.2822C120.761 18.1822 120.714 18.0622 120.714 17.9222V16.4022H125.514ZM132.476 16.0722C132.983 16.0722 133.423 16.0089 133.796 15.8822C134.176 15.7556 134.486 15.5822 134.726 15.3622C134.973 15.1356 135.156 14.8689 135.276 14.5622C135.396 14.2556 135.456 13.9189 135.456 13.5522C135.456 12.8189 135.213 12.2556 134.726 11.8622C134.246 11.4689 133.509 11.2722 132.516 11.2722H130.796V16.0722H132.476ZM139.396 23.6522H136.966C136.506 23.6522 136.173 23.4722 135.966 23.1122L132.926 18.4822C132.813 18.3089 132.686 18.1856 132.546 18.1122C132.413 18.0389 132.213 18.0022 131.946 18.0022H130.796V23.6522H128.106V9.19223H132.516C133.496 9.19223 134.336 9.29557 135.036 9.50223C135.743 9.70223 136.319 9.98557 136.766 10.3522C137.219 10.7189 137.553 11.1589 137.766 11.6722C137.979 12.1789 138.086 12.7389 138.086 13.3522C138.086 13.8389 138.013 14.2989 137.866 14.7322C137.726 15.1656 137.519 15.5589 137.246 15.9122C136.979 16.2656 136.646 16.5756 136.246 16.8422C135.853 17.1089 135.403 17.3189 134.896 17.4722C135.069 17.5722 135.229 17.6922 135.376 17.8322C135.523 17.9656 135.656 18.1256 135.776 18.3122L139.396 23.6522ZM148.598 18.1922L146.838 13.3822C146.751 13.1689 146.661 12.9156 146.568 12.6222C146.474 12.3289 146.381 12.0122 146.288 11.6722C146.201 12.0122 146.111 12.3322 146.018 12.6322C145.924 12.9256 145.834 13.1822 145.748 13.4022L143.998 18.1922H148.598ZM153.348 23.6522H151.268C151.034 23.6522 150.844 23.5956 150.698 23.4822C150.551 23.3622 150.441 23.2156 150.368 23.0422L149.288 20.0922H143.298L142.218 23.0422C142.164 23.1956 142.061 23.3356 141.908 23.4622C141.754 23.5889 141.564 23.6522 141.338 23.6522H139.238L144.928 9.19223H147.668L153.348 23.6522ZM163.538 11.4022H159.178V23.6522H156.488V11.4022H152.128V9.19223H163.538V11.4022ZM171.25 21.4822C171.77 21.4822 172.234 21.3956 172.64 21.2222C173.054 21.0489 173.4 20.8056 173.68 20.4922C173.96 20.1789 174.174 19.7989 174.32 19.3522C174.474 18.9056 174.55 18.4056 174.55 17.8522V9.19223H177.24V17.8522C177.24 18.7122 177.1 19.5089 176.82 20.2422C176.547 20.9689 176.15 21.5989 175.63 22.1322C175.117 22.6589 174.49 23.0722 173.75 23.3722C173.01 23.6656 172.177 23.8122 171.25 23.8122C170.317 23.8122 169.48 23.6656 168.74 23.3722C168 23.0722 167.37 22.6589 166.85 22.1322C166.337 21.5989 165.94 20.9689 165.66 20.2422C165.387 19.5089 165.25 18.7122 165.25 17.8522V9.19223H167.94V17.8422C167.94 18.3956 168.014 18.8956 168.16 19.3422C168.314 19.7889 168.53 20.1722 168.81 20.4922C169.097 20.8056 169.444 21.0489 169.85 21.2222C170.264 21.3956 170.73 21.4822 171.25 21.4822ZM188.744 21.4322V23.6522H180.274V9.19223H182.964V21.4322H188.744ZM198.305 18.1922L196.545 13.3822C196.458 13.1689 196.368 12.9156 196.275 12.6222C196.181 12.3289 196.088 12.0122 195.995 11.6722C195.908 12.0122 195.818 12.3322 195.725 12.6322C195.631 12.9256 195.541 13.1822 195.455 13.4022L193.705 18.1922H198.305ZM203.055 23.6522H200.975C200.741 23.6522 200.551 23.5956 200.405 23.4822C200.258 23.3622 200.148 23.2156 200.075 23.0422L198.995 20.0922H193.005L191.925 23.0422C191.871 23.1956 191.768 23.3356 191.615 23.4622C191.461 23.5889 191.271 23.6522 191.045 23.6522H188.945L194.635 9.19223H197.375L203.055 23.6522ZM214.511 10.1822C214.511 10.4889 214.425 10.7689 214.251 11.0222L206.831 21.5022H214.341V23.6522H203.341V22.5922C203.341 22.4589 203.365 22.3322 203.411 22.2122C203.458 22.0856 203.518 21.9689 203.591 21.8622L211.031 11.3322H203.811V9.19223H214.511V10.1822ZM219.361 23.6522H216.661V9.19223H219.361V23.6522ZM236.388 16.4222C236.388 17.4822 236.212 18.4656 235.858 19.3722C235.512 20.2722 235.018 21.0522 234.378 21.7122C233.738 22.3722 232.968 22.8889 232.068 23.2622C231.168 23.6289 230.168 23.8122 229.068 23.8122C227.975 23.8122 226.978 23.6289 226.078 23.2622C225.178 22.8889 224.405 22.3722 223.758 21.7122C223.118 21.0522 222.622 20.2722 222.268 19.3722C221.915 18.4656 221.738 17.4822 221.738 16.4222C221.738 15.3622 221.915 14.3822 222.268 13.4822C222.622 12.5756 223.118 11.7922 223.758 11.1322C224.405 10.4722 225.178 9.9589 226.078 9.59223C226.978 9.2189 227.975 9.03223 229.068 9.03223C229.802 9.03223 230.492 9.1189 231.138 9.29223C231.785 9.4589 232.378 9.6989 232.918 10.0122C233.458 10.3189 233.942 10.6956 234.368 11.1422C234.802 11.5822 235.168 12.0756 235.468 12.6222C235.768 13.1689 235.995 13.7622 236.148 14.4022C236.308 15.0422 236.388 15.7156 236.388 16.4222ZM233.638 16.4222C233.638 15.6289 233.532 14.9189 233.318 14.2922C233.105 13.6589 232.802 13.1222 232.408 12.6822C232.015 12.2422 231.535 11.9056 230.968 11.6722C230.408 11.4389 229.775 11.3222 229.068 11.3222C228.362 11.3222 227.725 11.4389 227.158 11.6722C226.598 11.9056 226.118 12.2422 225.718 12.6822C225.325 13.1222 225.022 13.6589 224.808 14.2922C224.595 14.9189 224.488 15.6289 224.488 16.4222C224.488 17.2156 224.595 17.9289 224.808 18.5622C225.022 19.1889 225.325 19.7222 225.718 20.1622C226.118 20.5956 226.598 20.9289 227.158 21.1622C227.725 21.3956 228.362 21.5122 229.068 21.5122C229.775 21.5122 230.408 21.3956 230.968 21.1622C231.535 20.9289 232.015 20.5956 232.408 20.1622C232.802 19.7222 233.105 19.1889 233.318 18.5622C233.532 17.9289 233.638 17.2156 233.638 16.4222ZM250.941 9.19223V23.6522H249.561C249.347 23.6522 249.167 23.6189 249.021 23.5522C248.881 23.4789 248.744 23.3589 248.611 23.1922L241.061 13.5522C241.101 13.9922 241.121 14.3989 241.121 14.7722V23.6522H238.751V9.19223H240.161C240.274 9.19223 240.371 9.1989 240.451 9.21223C240.537 9.2189 240.611 9.2389 240.671 9.27223C240.737 9.2989 240.801 9.34223 240.861 9.40223C240.921 9.45557 240.987 9.5289 241.061 9.62223L248.641 19.3022C248.621 19.0689 248.604 18.8389 248.591 18.6122C248.577 18.3856 248.571 18.1756 248.571 17.9822V9.19223H250.941ZM256.861 23.6522H254.161V9.19223H256.861V23.6522Z" fill="white"/>
</g>
<defs>
<filter id="filter0_d_12252_94622" x="24.5" y="0" width="276" height="56" filterUnits="userSpaceOnUse" color-interpolation-filters="sRGB">
<feFlood flood-opacity="0" result="BackgroundImageFix"/>
<feColorMatrix in="SourceAlpha" type="matrix" values="0 0 0 0 0 0 0 0 0 0 0 0 0 0 0 0 0 0 127 0" result="hardAlpha"/>
<feOffset dy="4"/>
<feGaussianBlur stdDeviation="2"/>
<feComposite in2="hardAlpha" operator="out"/>
<feColorMatrix type="matrix" values="0 0 0 0 0 0 0 0 0 0 0 0 0 0 0 0 0 0 0.25 0"/>
<feBlend mode="normal" in2="BackgroundImageFix" result="effect1_dropShadow_12252_94622"/>
<feBlend mode="normal" in="SourceGraphic" in2="effect1_dropShadow_12252_94622" result="shape"/>
</filter>
</defs>
</svg>
