<svg width="55" height="55" viewBox="0 0 55 55" fill="none" xmlns="http://www.w3.org/2000/svg">
<g clip-path="url(#clip0_10234_20286)">
<path d="M27.5 1.02441C42.1219 1.02453 53.9756 12.8781 53.9756 27.5C53.9755 42.1218 42.1218 53.9755 27.5 53.9756C12.8781 53.9756 1.02453 42.1219 1.02441 27.5C1.02441 12.878 12.878 1.02441 27.5 1.02441Z" fill="white" stroke="black" stroke-width="2.04877"/>
<path d="M25.2048 54.274C25.1766 54.2485 24.7701 54.1868 24.3033 54.1385C19.682 53.6596 14.2853 51.3671 10.5306 48.2898C9.38593 47.3521 7.12263 45.0287 6.28583 43.9328C3.34872 40.0868 1.41512 35.3917 0.84448 30.7195C0.710877 29.6262 0.705668 25.7373 0.836096 24.4602C1.31992 19.7249 3.59407 14.3323 6.71013 10.5306C7.64835 9.38592 9.97161 7.12262 11.0672 6.28582C14.9292 3.33597 19.9355 1.29731 24.4468 0.837309C25.7065 0.708796 29.4585 0.70929 30.6014 0.838127C35.4199 1.38108 40.5295 3.5404 44.4023 6.66975C45.5908 7.62969 47.8445 9.92934 48.7137 11.0672C50.518 13.4285 52.0687 16.3632 52.9755 19.1293C53.4303 20.5164 53.7147 21.7478 54.1332 24.1463C54.2781 24.9807 54.317 29.4156 54.1869 30.4512C53.5671 35.4105 51.6904 40.0358 48.7137 43.9328C47.8445 45.0717 45.5895 47.3709 44.4023 48.3301C42.8489 49.5843 41.1479 50.6615 39.2377 51.5992C36.7265 52.8306 34.489 53.5188 30.9878 54.1359C30.4726 54.2271 25.2893 54.3505 25.2048 54.274ZM20.9054 42.2157C20.9845 42.1191 21.0677 41.5007 21.0892 40.8407C21.1281 39.6535 21.1321 39.6401 21.4836 39.5985C21.9182 39.5489 23.1336 40.0882 24.8238 41.0835C27.2049 42.4853 26.5797 42.3981 33.9805 42.3579L40.445 42.323L40.4262 41.5356C40.4168 41.1023 40.339 40.7052 40.2559 40.6529C40.1633 40.5966 40.0895 40.06 40.0681 39.2954C40.0265 37.7567 39.785 37.1812 38.9131 36.5467C38.3094 36.1067 36.9814 35.6694 35.6829 35.4816C34.7237 35.3434 33.3702 34.996 32.9329 34.776C32.7115 34.6647 32.1079 34.1737 31.5914 33.6854C30.6806 32.8242 29.7335 32.0502 27.1096 30.0192C26.4161 29.4826 25.6622 28.8106 25.4328 28.5275L25.0183 28.0111L25.021 26.1129C25.0223 25.0679 25.08 22.7338 25.1484 20.9268C25.2182 19.1199 25.2772 16.7053 25.2799 15.561L25.2866 13.4818L18.4076 13.447C12.15 13.4154 11.5217 13.432 11.4452 13.6312C11.3683 13.8315 11.5324 16.6235 11.9725 22.6037C12.2545 26.4362 12.2031 27.3645 11.567 29.9146C10.8288 32.8752 10.6963 33.7203 10.7526 35.1114C10.7882 35.9873 10.877 36.4421 11.1017 36.8995C11.3565 37.4173 11.4236 37.8707 11.5359 39.8279C11.609 41.1023 11.703 42.1996 11.7447 42.2667C11.7885 42.3378 13.7247 42.3901 16.2908 42.3901C19.7974 42.3901 20.7914 42.3525 20.9054 42.2157ZM28.9085 41.1184C28.8347 41.0943 28.4564 40.9776 28.0674 40.8568C27.6797 40.7374 26.5932 40.2733 25.6528 39.8266C22.6158 38.3792 23.3415 38.4999 17.6403 38.4999C12.6937 38.4999 12.6171 38.4959 12.4701 38.2209C12.106 37.5407 12.0581 37.5461 17.8724 37.589L23.2744 37.6279L25.4261 38.6635C28.8455 40.3095 28.0553 40.1619 33.8571 40.2411C38.3416 40.3028 38.956 40.3363 39.0767 40.5268C39.1519 40.6462 39.176 40.8421 39.129 40.9628C39.0526 41.1613 38.5562 41.1814 34.0436 41.1721C31.2936 41.1667 28.9823 41.1425 28.9085 41.1184ZM37.9003 38.6957C37.4858 38.3242 36.8767 37.962 36.2905 37.7379C35.1382 37.2966 35.0121 37.2067 35.0121 36.8231C35.0121 35.7137 37.5716 35.9927 38.9144 37.2496C39.7233 38.0076 39.9192 38.6743 39.4429 39.0593C38.9828 39.4322 38.63 39.349 37.9003 38.6957ZM44.8745 40.284C45.01 39.8226 45.0073 39.6737 44.8584 39.4604C44.7041 39.2404 44.7082 39.0928 44.8879 38.4878C45.0247 38.0264 45.0824 37.4321 45.0502 36.8043C45.01 35.9887 44.9375 35.7432 44.6008 35.2656C44.0857 34.5345 43.0622 33.8571 41.384 33.1368C39.3625 32.2688 39.1317 32.0743 37.7165 30.0474C37.0216 29.052 35.8022 27.3873 35.0054 26.3463C33.3729 24.2134 32.9999 23.591 32.9999 23.0048C32.9999 22.7794 33.7874 19.6726 34.7492 16.1003C35.7097 12.5283 36.4797 9.51604 36.4596 9.40698C36.4207 9.2118 36.2033 9.14661 33.3353 8.47413C32.6713 8.31839 31.3728 8.01375 30.4512 7.7971C24.1303 6.31252 23.32 6.1392 23.2087 6.25068C23.0048 6.45619 22.0993 11.6895 22.2428 11.833C22.3139 11.9038 22.5138 11.9417 22.6882 11.917C22.9806 11.8757 23.0316 11.7458 23.3106 10.3294C23.477 9.4809 23.6795 8.4626 23.7587 8.06647L23.9035 7.34624L24.3945 7.42405C24.6642 7.4667 25.3966 7.62486 26.0244 7.77537C26.6522 7.92588 27.6771 8.16882 28.3049 8.31531C32.9892 9.40967 35.0698 9.93136 35.1771 10.0387C35.2549 10.1157 34.6727 12.4957 33.6613 16.2492C32.0878 22.0792 31.8892 23.0598 32.1052 23.9102C32.1575 24.1115 33.1448 25.5294 34.2998 27.0627C35.4562 28.5946 36.7574 30.3908 37.1933 31.0548C38.4167 32.9221 38.7655 33.2186 40.5859 33.9416C42.2171 34.5896 42.8341 34.9491 43.4351 35.601C43.9757 36.1872 43.9999 36.2503 43.9958 37.0551C43.9932 37.6092 43.8885 38.1484 43.6913 38.634L43.3908 39.3718H42.5887C41.8468 39.3718 41.7824 39.396 41.7422 39.6898C41.7167 39.8641 41.765 40.0747 41.8482 40.1579C42.0105 40.3202 44.2105 40.9051 44.5217 40.8689C44.625 40.8568 44.7833 40.5939 44.8745 40.284Z" fill="#004488"/>
</g>
<defs>
<clipPath id="clip0_10234_20286">
<rect width="55" height="55" rx="10" fill="white"/>
</clipPath>
</defs>
</svg>
