<svg width="55" height="55" viewBox="0 0 55 55" fill="none" xmlns="http://www.w3.org/2000/svg">
<g clip-path="url(#clip0_10344_26712)">
<path d="M27.5 1.02441C42.1219 1.02453 53.9756 12.8781 53.9756 27.5C53.9755 42.1218 42.1218 53.9755 27.5 53.9756C12.8781 53.9756 1.02453 42.1219 1.02441 27.5C1.02441 12.878 12.878 1.02441 27.5 1.02441Z" fill="white" stroke="black" stroke-width="2.04877"/>
<path d="M25.2048 54.2763C25.1766 54.2495 24.793 54.1905 24.3543 54.1449C19.5828 53.6405 14.3578 51.4284 10.5307 48.2908C9.38599 47.3531 7.12269 45.0297 6.28589 43.9337C3.29405 40.0167 1.42582 35.4799 0.84454 30.7204C0.711689 29.6325 0.70544 25.7396 0.834519 24.4827C1.32868 19.6736 3.56073 14.3735 6.71019 10.5316C7.6484 9.3869 9.97167 7.1236 11.0672 6.2868C14.9293 3.33694 19.9356 1.29828 24.4469 0.838285C25.7065 0.709773 29.4586 0.710266 30.6015 0.839103C35.204 1.35764 40.0923 3.35545 43.9328 6.2864C45.1442 7.21052 47.5467 9.58838 48.4924 10.7998C49.7628 12.4249 50.7662 14.0345 51.6475 15.8585C52.883 18.418 53.4826 20.4167 54.1333 24.1473C54.2781 24.9817 54.317 29.4165 54.1869 30.4521C53.5564 35.4987 51.7414 39.9697 48.7138 43.9337C47.8445 45.0713 45.5909 47.3719 44.4023 48.331C40.5779 51.4217 36.5817 53.1522 30.9878 54.1368C30.474 54.2281 25.2893 54.3528 25.2048 54.2763ZM33.9927 47.8266C35.0189 47.6482 35.9096 47.4497 35.974 47.3853C36.0411 47.3182 35.7433 45.0646 35.2885 42.1805C34.8472 39.3822 33.9967 33.9828 33.3984 30.1838L32.3118 23.2754L32.5224 18.7144C32.6391 16.2059 32.7344 14.0781 32.733 13.9858C32.7277 13.3245 33.1945 14.4875 34.8257 19.2C35.8627 22.1968 36.7708 24.6141 36.8741 24.6544C37.1142 24.7469 39.8803 24.0319 39.9943 23.8482C40.0815 23.7073 39.5758 22.162 37.023 14.7571C36.2731 12.5806 35.5353 10.4159 35.3851 9.94655C34.8351 8.23137 33.9511 7.64582 31.7256 7.52576L30.2514 7.44622L30.0166 6.94666C29.8878 6.67193 29.645 6.36232 29.4787 6.25876C29.095 6.01931 28.4082 5.89134 28.1989 6.02025C28.0782 6.0951 28.0299 8.2201 28.0044 14.6968L27.9695 23.2754H27.5671H27.1647L27.1298 14.7276C27.0963 6.34019 27.0909 6.17747 26.828 6.03689C26.6402 5.93668 26.4041 5.93534 26.0446 6.03206C25.4852 6.1827 25.2222 6.42215 24.9338 7.04378L24.7474 7.44622L23.2731 7.52576C20.9806 7.64958 20.1864 8.21406 19.5412 10.179C19.3561 10.7419 18.4989 13.2547 17.6363 15.7632C15.219 22.7911 14.9735 23.5517 15.054 23.761C15.1466 24.0038 18.0736 24.7778 18.2333 24.6034C18.2936 24.5363 19.0824 22.3404 19.9852 19.7205C21.8928 14.191 21.9679 13.9968 22.1222 14.1629C22.1852 14.2313 22.3851 16.2488 22.5675 18.6474L22.8975 23.0071L20.9309 35.1177C19.5399 43.6923 19.0086 47.2646 19.1119 47.3504C19.1924 47.4175 20.1811 47.6348 21.3106 47.8333C23.0518 48.1405 23.3885 48.1674 23.532 48.0091C23.6259 47.9071 24.5327 43.5675 25.5496 38.3667C26.5664 33.1646 27.4504 28.8531 27.5135 28.7847C27.5778 28.715 27.6556 28.6854 27.6878 28.7176C27.72 28.7498 28.5397 33.0318 29.5095 38.2326C30.4781 43.4347 31.3272 47.8266 31.3956 47.9943C31.4909 48.2237 31.5955 48.2814 31.8249 48.225C31.9912 48.1848 32.9678 48.0051 33.9927 47.8266ZM29.4009 13.3014C29.3003 13.2358 29.2412 13.017 29.2667 12.7974L29.311 12.4096H30.4512H31.5915V12.8791V13.3486L30.5854 13.383C30.0314 13.402 29.4988 13.3652 29.4009 13.3014Z" fill="#004488"/>
</g>
<defs>
<clipPath id="clip0_10344_26712">
<rect width="55" height="55" fill="white"/>
</clipPath>
</defs>
</svg>
