<svg width="55" height="55" viewBox="0 0 55 55" fill="none" xmlns="http://www.w3.org/2000/svg">
<g clip-path="url(#clip0_10234_20285)">
<path d="M27.5 1.02441C42.1219 1.02453 53.9756 12.8781 53.9756 27.5C53.9755 42.1218 42.1218 53.9755 27.5 53.9756C12.8781 53.9756 1.02453 42.1219 1.02441 27.5C1.02441 12.878 12.878 1.02441 27.5 1.02441Z" fill="white" stroke="black" stroke-width="2.04877"/>
<path d="M25.2048 54.274C25.1767 54.2485 24.7702 54.1868 24.3034 54.1385C19.6821 53.6596 14.2854 51.3671 10.5307 48.2898C9.38602 47.3521 7.12272 45.0287 6.28592 43.9328C3.26725 39.9809 1.45949 35.5728 0.839499 30.6524C0.710063 29.6248 0.707966 25.7158 0.836185 24.4602C1.18956 21.002 2.63019 16.7764 4.53358 13.6159C6.79098 9.86791 10.2738 6.47644 14.1848 4.21797C17.2232 2.46335 21.1335 1.17517 24.4469 0.837309C25.7065 0.708796 29.4586 0.70929 30.6015 0.838127C35.204 1.35667 40.0923 3.35448 43.9329 6.28542C45.1442 7.20955 47.5467 9.58741 48.4925 10.7989C49.7628 12.4239 50.7662 14.0335 51.6476 15.8575C52.8831 18.417 53.4827 20.4158 54.1333 24.1463C54.2782 24.9807 54.3171 29.4156 54.1869 30.4512C53.5672 35.4105 51.6905 40.0358 48.7138 43.9328C47.8446 45.0717 45.5896 47.3709 44.4024 48.3301C42.849 49.5843 41.148 50.6615 39.2378 51.5992C36.7266 52.8306 34.489 53.5188 30.9878 54.1359C30.4727 54.2271 25.2894 54.3505 25.2048 54.274ZM19.556 47.8377C22.2429 46.4762 26.9393 44.8168 31.558 43.5974C31.9081 43.5035 32.1952 43.3707 32.1952 43.2983C32.1952 43.1829 31.0817 40.5563 24.2216 24.4817C22.4039 20.2226 22.314 20.0455 21.8472 19.8175C21.269 19.5331 20.7941 19.6565 20.4507 20.1797C20.0832 20.7417 20.1985 21.2864 21.2355 23.9009C22.1705 26.2564 22.3006 26.84 21.8458 26.6629C21.7466 26.624 21.0316 25.0612 20.2589 23.1899C19.4849 21.3186 18.7229 19.6552 18.5633 19.4942C17.8792 18.8006 16.6584 19.0394 16.2815 19.9409C16.0387 20.5231 15.9958 20.3862 17.7262 24.589C18.9201 27.4866 19.0355 27.8394 18.8517 28.0231C18.6706 28.2042 18.6223 28.2042 18.4493 28.0312C18.3406 27.9225 17.6431 26.3852 16.8999 24.6145C16.1567 22.8451 15.4753 21.3226 15.3854 21.2314C15.0782 20.9215 14.4477 20.9 13.9922 21.1831C13.1972 21.6794 13.2353 21.8967 14.8864 26.2846C16.2158 29.8193 16.3499 30.2567 16.1675 30.4391C15.9891 30.6175 15.9421 30.6188 15.7852 30.4458C15.6859 30.3385 15.1345 28.9957 14.5577 27.4611C13.3856 24.3449 13.2164 24.1088 12.1647 24.1222C11.6987 24.1289 11.5301 24.2107 11.1679 24.6065C10.6113 25.2128 10.6136 25.5307 11.1865 27.115C11.4364 27.8058 13.1935 32.7477 15.0916 38.0975C16.9884 43.4458 18.6022 47.8981 18.6773 47.9907C18.8517 48.2066 18.8168 48.212 19.556 47.8377ZM32.7116 36.8968C33.4601 36.6648 35.3556 36.1523 36.9238 35.7553C39.6282 35.0711 39.7744 35.0188 39.7623 34.721C39.7556 34.5493 39.5316 33.4426 39.2633 32.2621C38.995 31.0816 38.5644 28.879 38.3082 27.3658C37.5006 22.6023 37.2967 20.3929 37.1451 14.7562C37.0687 11.9156 36.9774 9.39719 36.9426 9.15948C36.8567 8.57474 36.2852 7.9287 35.5743 7.61426C35.1101 7.40889 34.8271 7.37334 34.2194 7.4439L33.4508 7.53297L33.2925 7.0043C32.8511 5.53166 31.2682 4.83611 29.8369 5.48618C29.5364 5.62288 29.1635 5.89613 29.0079 6.09332L28.7262 6.45203L27.987 6.23713C27.4088 6.06904 27.1325 6.05295 26.7234 6.16335C25.9695 6.36631 25.335 6.83716 24.9916 7.44926C24.6964 7.97619 24.6844 7.98182 23.8889 7.98746C23.1994 7.99242 23.0116 8.05144 22.5756 8.39861C21.6379 9.14647 21.6285 9.19825 21.5776 14.1981L21.5306 18.6692L22.0578 18.8516C22.3489 18.9522 22.636 19.0032 22.695 18.967C22.7553 18.9294 22.805 16.8864 22.805 14.4275C22.805 10.3646 22.8264 9.93136 23.0397 9.67916C23.4019 9.25137 23.8956 9.19262 24.3195 9.52664L24.683 9.81223V12.9109C24.683 15.6053 24.7125 16.0413 24.9044 16.2546C25.1807 16.5591 25.4597 16.5671 25.779 16.2787C25.9829 16.0936 26.0245 15.8468 26.0245 14.8366C26.0245 14.1646 26.0647 12.3808 26.1143 10.8712C26.1989 8.24931 26.2163 8.11275 26.5101 7.81937C26.9139 7.41559 27.5148 7.4223 27.9951 7.83587L28.372 8.1593L28.4136 11.0546C28.4512 13.7817 28.4699 13.958 28.7194 14.0921C29.087 14.288 29.5029 14.127 29.6544 13.7298C29.7242 13.547 29.7805 11.9879 29.7805 10.2655V7.13376L30.1937 6.78645C30.6646 6.39032 30.9731 6.35531 31.5164 6.63634C32.12 6.94863 32.1817 7.3504 32.0972 10.4537C32.0261 13.0565 32.0395 13.3023 32.2622 13.5491C32.5573 13.8754 32.8323 13.8894 33.157 13.5951C33.373 13.4 33.4025 13.1432 33.4025 11.4669C33.4025 9.72464 33.4266 9.52946 33.6882 9.19718C33.8451 8.9973 34.1148 8.78026 34.2865 8.71479C34.697 8.55918 35.3704 8.79541 35.585 9.16968C35.7031 9.37519 35.7742 10.8944 35.8359 14.4879C35.8935 17.8858 35.9942 20.0844 36.1431 21.2622C36.5441 24.424 37.1518 28.1962 37.7058 30.9663C38.0063 32.466 38.221 33.7713 38.1847 33.8678C38.1485 33.9631 37.7971 34.1147 37.404 34.2059C35.3234 34.6835 30.682 36.0799 30.5626 36.265C30.4271 36.4716 30.9718 37.4616 31.177 37.3825C31.2709 37.3462 31.9617 37.1276 32.7116 36.8968ZM29.0535 28.1479C29.6853 24.5166 29.7671 23.3133 29.4425 22.3944C28.5853 19.9664 25.5509 19.411 24.4711 21.4849C24.3061 21.8028 24.3181 21.9195 24.569 22.5245C24.7259 22.9001 24.8909 23.2073 24.9379 23.2073C24.9848 23.2073 25.1297 22.9055 25.2598 22.5379C25.4315 22.055 25.6126 21.8082 25.9051 21.6566C26.985 21.0986 28.4297 22.2911 28.4351 23.7439C28.4364 24.0028 28.199 25.4328 27.9079 26.9245L27.3793 29.6342L27.7214 30.4793C28.0688 31.3365 28.2955 31.7121 28.4029 31.6062C28.4351 31.574 28.7275 30.0179 29.0535 28.1479Z" fill="#004488"/>
</g>
<defs>
<clipPath id="clip0_10234_20285">
<rect width="55" height="55" rx="10" fill="white"/>
</clipPath>
</defs>
</svg>
