<svg width="55" height="55" viewBox="0 0 55 55" fill="none" xmlns="http://www.w3.org/2000/svg">
<g clip-path="url(#clip0_10344_25472)">
<path d="M27.5 1.02441C42.1219 1.02453 53.9756 12.8781 53.9756 27.5C53.9755 42.1218 42.1218 53.9755 27.5 53.9756C12.8781 53.9756 1.02453 42.1219 1.02441 27.5C1.02441 12.878 12.878 1.02441 27.5 1.02441Z" fill="white" stroke="black" stroke-width="2.04878"/>
<path d="M25.2128 54.2845C25.1793 54.2537 24.7701 54.1879 24.3033 54.1396C19.682 53.6607 14.2853 51.3682 10.5306 48.2909C9.38593 47.3532 7.12263 45.0298 6.28583 43.9339C3.31357 40.0423 1.42195 35.4492 0.84448 30.7206C0.710877 29.6273 0.705668 25.7384 0.836096 24.4613C1.31108 19.8119 3.40412 14.7707 6.50717 10.8C7.45397 9.58851 9.85637 7.21065 11.0672 6.28652C15.0164 3.27187 19.7316 1.36566 24.5488 0.835099C25.6917 0.709264 29.4719 0.711838 30.6014 0.83923C35.5581 1.39773 40.728 3.6228 44.6035 6.86496C47.6714 9.43116 49.8285 12.1782 51.5911 15.7634C52.8427 18.3081 53.5429 20.6221 54.1318 24.1474C54.2754 25.0127 54.3156 29.4341 54.1882 30.4523C53.5201 35.7765 51.4275 40.6715 48.1355 44.6046C45.5251 47.7248 42.6342 49.9744 38.9989 51.7116C36.4931 52.9095 34.383 53.5481 30.9877 54.1356C30.4284 54.2322 25.3 54.3637 25.2128 54.2845ZM31.6907 48.7993C32.6565 48.0615 32.5975 49.0381 32.5975 33.9494C32.5975 22.201 32.6243 20.3726 32.792 20.3082C32.965 20.2425 35.1704 21.8133 35.4454 22.1983C35.5004 22.2748 35.546 23.8161 35.5487 25.623C35.5527 28.7728 35.5661 28.9324 35.8532 29.4462C36.1778 30.0257 37.082 30.5864 37.695 30.5864C38.3604 30.5864 39.2149 30.0284 39.5435 29.3791C39.8454 28.7848 39.8494 28.7137 39.8118 24.684C39.781 21.3679 39.7367 20.5175 39.573 20.1955C39.463 19.9769 38.677 19.2645 37.8292 18.6126C36.9814 17.9607 36.1282 17.2913 35.9337 17.1249L35.5809 16.8218L35.9659 15.3542C36.4595 13.4709 36.7453 11.5372 36.8486 9.38501L36.9304 7.67358L36.379 7.39228C35.4159 6.90091 35.4145 6.90211 35.4119 8.75426C35.4092 10.6069 35.1704 12.6404 34.7425 14.4635C34.4152 15.8599 34.328 15.9203 33.5419 15.2979C33.2655 15.0792 32.8752 14.8377 32.6753 14.7613C32.458 14.6781 30.8308 14.6231 28.6268 14.6231C25.6058 14.6231 24.8533 14.6607 24.4455 14.831C24.1396 14.9585 23.0477 15.9351 21.5949 17.3798L19.2406 19.7206H15.8535C13.2969 19.7206 12.3598 19.7649 12.0291 19.9031C11.3854 20.1727 10.8979 20.8247 10.7867 21.5651C10.7058 22.1044 10.7429 22.2949 11.0276 22.806C11.6508 23.9248 11.7219 23.9408 16.1902 23.9878C18.8235 24.0146 20.291 23.9784 20.6733 23.8751C21.1227 23.7544 21.5667 23.4029 22.8049 22.1916C23.6661 21.3492 24.4093 20.6597 24.4589 20.6597C24.5085 20.6597 24.5474 22.2144 24.5461 24.1139L24.5434 27.5681L21.7747 29.7815C17.985 32.8105 17.7785 33.005 17.5746 33.7321C17.4538 34.1654 17.4431 34.482 17.5383 34.8428C17.8268 35.9415 20.9725 43.9594 21.2676 44.3511C21.7331 44.9681 22.4266 45.2512 23.2985 45.1787C24.1034 45.1117 24.5823 44.8273 25.0518 44.1364C25.6179 43.3034 25.5052 42.7279 24.0122 38.8296C23.2744 36.9047 22.6707 35.2681 22.6707 35.1956C22.6707 35.0306 27.5483 31.123 27.7535 31.123C27.8608 31.123 27.9037 33.3605 27.9078 39.1382C27.9145 47.584 27.9279 47.7812 28.5262 48.4559C29.0668 49.0636 29.535 49.25 30.4015 49.2004C31.0387 49.1655 31.3285 49.0757 31.6907 48.7993ZM29.2586 48.2185C29.0333 48.0293 28.7878 47.651 28.7113 47.3801C28.6255 47.0675 28.5745 43.9419 28.5745 38.9289L28.5731 30.9741L29.0091 30.573C29.5524 30.0726 30.9327 29.3804 31.4626 29.3415L31.8597 29.312L31.8946 38.3387C31.9241 46.2076 31.9026 47.4149 31.7242 47.7597C31.2923 48.5941 29.9924 48.8355 29.2586 48.2185ZM22.1905 44.284C21.6754 43.9701 21.7022 44.0304 19.7088 38.7921L18.0588 34.4552L18.252 33.8985C18.421 33.4115 18.8208 33.0359 21.3964 30.9486C23.0195 29.634 24.4576 28.4964 24.593 28.4213C24.7983 28.3073 25.0035 28.4602 25.8983 29.4019C26.4818 30.0163 26.9446 30.5891 26.9285 30.6749C26.9111 30.7595 25.791 31.7146 24.4401 32.7958C23.0906 33.877 21.9571 34.8361 21.9222 34.926C21.8873 35.0159 22.495 36.7477 23.2717 38.7733C24.9016 43.027 24.9539 43.3195 24.2094 44.064C23.8163 44.457 23.6379 44.5375 23.1698 44.5375C22.8532 44.5362 22.4212 44.4262 22.1905 44.284ZM36.9921 29.7051C36.2677 29.312 36.2194 29.037 36.2194 25.3024V21.8831L34.6432 20.6704C33.7766 20.0023 32.9677 19.455 32.847 19.455C32.7263 19.4537 32.4848 19.5677 32.3104 19.7086C31.9965 19.9621 31.9938 19.9943 31.9268 23.297L31.8597 26.6291L31.5579 26.6721C31.366 26.6989 31.2225 26.6291 31.1662 26.4829C31.0441 26.1677 31.3432 20.1003 31.5941 17.7755C31.8329 15.5581 31.9362 15.2362 32.3627 15.3716C32.5277 15.424 34.061 16.5454 35.77 17.8641C38.1471 19.6978 38.9117 20.3592 39.0244 20.6811C39.117 20.9481 39.1706 22.5042 39.1706 24.9228C39.1706 28.5259 39.1545 28.7687 38.8983 29.1832C38.6421 29.5991 38.0532 29.9224 37.5743 29.9103C37.4562 29.9076 37.1947 29.8151 36.9921 29.7051ZM27.111 28.6306C26.4671 27.925 26.2953 27.6325 26.5274 27.6366C26.5824 27.6379 26.9486 27.7237 27.3417 27.8284C27.7347 27.933 28.443 28.0605 28.9179 28.1101C29.3928 28.1611 29.7778 28.2415 29.7737 28.2885C29.7657 28.4186 28.1814 29.3791 27.9762 29.3791C27.8769 29.3791 27.4879 29.0424 27.111 28.6306ZM27.4544 26.3702C26.8024 26.1972 26.2068 25.9933 26.1303 25.9168C26.0177 25.8041 25.9721 23.7356 26.023 21.0286C26.0257 20.8703 29.7509 20.9065 29.8502 21.0661C29.8971 21.1426 29.8931 22.4411 29.8395 23.9502L29.7429 26.6962L29.1915 26.6895C28.8884 26.6868 28.1063 26.5419 27.4544 26.3702ZM12.3853 23.195C11.9209 23.0609 11.4025 22.366 11.4025 21.8777C11.4025 21.4739 11.7435 20.8515 12.1024 20.6006C12.3548 20.4236 12.9503 20.3914 15.9393 20.3914H19.4767L21.9665 17.9767C23.3348 16.6487 24.5152 15.5621 24.5877 15.5621C24.6722 15.5621 24.6856 16.2704 24.6252 17.5408L24.53 19.5194L22.8317 21.2298C21.8981 22.1701 20.9416 23.03 20.7082 23.1413C20.3594 23.3063 19.6122 23.3399 16.547 23.3305C14.4919 23.3238 12.6195 23.2634 12.3853 23.195ZM27.5335 19.4859C26.4711 19.4564 26.0203 19.3947 26.011 19.2806C25.9694 18.7991 26.0499 15.7285 26.1075 15.5286C26.1692 15.318 26.3933 15.2938 28.3022 15.2938C29.6959 15.2938 30.4458 15.3435 30.4767 15.4374C30.5491 15.6534 30.1748 18.9372 30.038 19.2847C29.9454 19.5221 29.8274 19.5798 29.4813 19.5583C29.2398 19.5422 28.3639 19.51 27.5335 19.4859ZM30.1185 13.3542C31.2024 12.7193 31.7819 11.1816 31.3875 9.98853C30.969 8.7175 29.5001 7.80143 28.1948 7.99661C27.3873 8.11734 26.4442 8.79182 26.0552 9.52559C25.5911 10.4016 25.6675 11.6918 26.231 12.5046C26.8118 13.3428 27.8702 13.8618 28.8146 13.7708C29.2318 13.7304 29.7697 13.5589 30.1185 13.3542ZM27.6878 12.892C25.8486 12.0565 26.0821 9.24684 28.0352 8.72099C29.429 8.34565 30.8536 9.46536 30.8536 10.9365C30.8536 11.5118 30.6095 12.0137 30.0943 12.5017C29.3726 13.1841 28.6053 13.3086 27.6878 12.892Z" fill="#004488"/>
</g>
<defs>
<clipPath id="clip0_10344_25472">
<rect width="55" height="55" fill="white"/>
</clipPath>
</defs>
</svg>
