<svg width="55" height="55" viewBox="0 0 55 55" fill="none" xmlns="http://www.w3.org/2000/svg">
<g clip-path="url(#clip0_10334_24556)">
<path d="M27.5 1.02441C42.1221 1.02441 53.9756 12.8779 53.9756 27.5C53.9756 42.1221 42.1221 53.9756 27.5 53.9756C12.8779 53.9756 1.02441 42.1221 1.02441 27.5C1.02443 12.8779 12.8779 1.02443 27.5 1.02441Z" fill="white" stroke="black" stroke-width="2.04878"/>
<path d="M25.213 54.2849C25.1795 54.254 24.7931 54.191 24.3545 54.1453C19.6459 53.6477 14.818 51.6355 10.799 48.4938C9.58749 47.548 7.20961 45.1455 6.28548 43.9341C3.30166 40.0251 1.42382 35.4641 0.844481 30.7207C0.710877 29.6274 0.705668 25.7385 0.836097 24.4614C1.29611 19.9595 3.34928 14.9129 6.28588 11.0682C7.20706 9.86227 9.44342 7.60324 10.7319 6.57729C14.6745 3.43759 19.7398 1.31834 24.447 0.838306C25.7053 0.710036 29.4614 0.71018 30.5856 0.838547C38.4264 1.73399 45.6274 6.21711 50.0315 12.9463C52.1711 16.2168 53.7674 20.7174 54.1658 24.609C54.2946 25.8646 54.2893 29.4758 54.1578 30.6536C53.6091 35.5553 51.3743 40.7347 48.136 44.6049C45.5671 47.6768 42.6641 49.9492 39.1428 51.6475C36.6329 52.8575 34.3497 53.5551 30.988 54.136C30.43 54.2325 25.3015 54.364 25.213 54.2849ZM26.9368 43.7061C27.1166 43.5263 27.1514 42.5497 26.9878 42.2922C26.9073 42.1647 25.3914 42.1178 20.4508 42.091L14.0185 42.0561V40.7146V39.3731L20.3784 39.3383C24.8025 39.3141 26.7933 39.2578 26.918 39.1545C27.0267 39.0633 27.0978 38.7252 27.0978 38.2946C27.0978 37.0457 27.7631 37.1597 20.4387 37.1597H13.9423L13.9804 35.7177L14.0185 34.2756L15.8965 34.2085L17.7746 34.1414L17.8095 22.4533C17.8363 13.3207 17.8792 10.7365 18.0107 10.6362C18.1636 10.5182 20.1476 9.99977 20.4575 9.99642C20.5461 9.99561 20.6145 14.1523 20.6587 22.0683L20.7258 34.1414H23.8112H26.8965L26.9341 28.1048L26.9703 22.0683L24.1895 15.7969C21.8191 10.4549 21.367 9.52637 21.1336 9.5312C20.9834 9.53428 19.9545 9.76823 18.8478 10.0509L16.8356 10.5651L16.7323 12.091C16.366 17.4818 15.6564 20.3123 14.0976 22.6048L13.5496 23.4097L13.5492 33.4774C13.5491 41.1291 13.5876 43.584 13.7099 43.7061C13.8307 43.8268 15.4834 43.8671 20.3234 43.8671C25.1634 43.8671 26.8161 43.8268 26.9368 43.7061ZM41.1053 43.7852C41.2958 43.7128 41.3173 42.6772 41.3173 33.4573V23.2112L40.8317 22.5753C39.3467 20.6289 38.2319 16.092 38.2319 11.991C38.2319 11.1703 38.1769 10.7223 38.0642 10.6341C37.8322 10.4522 34.005 9.49283 33.7313 9.54796C33.5811 9.57801 32.5951 11.6349 30.7036 15.864L27.9 22.1353L27.9348 28.1384L27.9697 34.1414H31.0551H34.1405L34.1753 22.1407C34.1941 15.5407 34.2545 10.0957 34.3095 10.04C34.4141 9.93551 36.3592 10.3864 36.7831 10.6135C37.0099 10.7346 37.0246 11.3702 37.0568 22.4412L37.0917 34.1414L39.0368 34.2085L40.9819 34.2756V35.6841V37.0927L34.4758 37.1597L27.9697 37.2268V38.2329V39.239L34.4758 39.3061L40.9819 39.3731V40.7146V42.0561L34.4758 42.1231L27.9697 42.1902L27.9281 42.8435C27.9053 43.203 27.9187 43.5813 27.9576 43.6819C28.0167 43.8362 29.122 43.8671 34.4611 43.8671C37.9985 43.8671 40.9886 43.8308 41.1053 43.7852ZM29.5084 16.4247C31.7701 11.6004 31.8506 11.4169 31.7647 11.3306C31.7258 11.2921 31.2188 11.3973 30.6366 11.5645C29.7418 11.8219 29.2616 11.8683 27.5002 11.8679C25.9495 11.8675 25.2157 11.8094 24.6161 11.6393C24.1734 11.5139 23.6663 11.3699 23.4892 11.3195C23.1995 11.237 23.1767 11.2606 23.2504 11.5584C23.2961 11.7403 23.72 12.7004 24.1922 13.692C24.6644 14.6835 25.1728 15.7674 25.3244 16.0987C26.5397 18.7709 27.3848 20.4075 27.5257 20.3606C27.6156 20.3311 28.5076 18.559 29.5084 16.4247Z" fill="#004488"/>
</g>
<defs>
<clipPath id="clip0_10334_24556">
<rect width="55" height="55" fill="white"/>
</clipPath>
</defs>
</svg>
