<svg width="55" height="55" viewBox="0 0 55 55" fill="none" xmlns="http://www.w3.org/2000/svg">
<path d="M25.1378 54.9754C25.1088 54.9493 24.6912 54.8859 24.2115 54.8363C19.4628 54.3445 13.9174 51.9902 10.0592 48.83C8.88297 47.867 6.55729 45.481 5.69743 44.3555C2.64726 40.3646 0.698714 35.6353 0.106116 30.7861C-0.0311699 29.6634 -0.0365224 25.6697 0.0975005 24.3582C0.5868 19.5724 2.72844 14.4161 5.92487 10.3287C6.89777 9.0846 9.36639 6.64266 10.6106 5.69363C14.5846 2.66277 19.7233 0.571074 24.359 0.0987075C25.6519 -0.0330175 29.5115 -0.0328701 30.6666 0.0989555C35.855 0.691132 41.0407 2.91928 45.0712 6.28793C48.2223 8.92163 50.4401 11.7438 52.2514 15.4258C53.5664 18.0998 54.1812 20.1276 54.8635 24.0359C55.0124 24.8927 55.0523 29.4471 54.9186 30.5106C54.2818 35.6036 52.3534 40.3536 49.2947 44.3555C48.4014 45.5251 46.0843 47.8863 44.8644 48.8713C43.2682 50.1593 41.5203 51.2656 39.5575 52.2285C36.9771 53.4931 34.6778 54.1998 31.0802 54.8335C30.5508 54.9272 25.2246 55.054 25.1378 54.9754ZM37.2141 47.2554C38.0839 46.9936 39.002 46.1009 39.2694 45.2592C39.4072 44.8253 39.4899 43.6915 39.5368 41.6003C39.5892 39.2184 39.6677 38.2748 39.8993 37.192C40.4383 34.6765 41.1688 32.8098 42.7154 29.994C43.9891 27.6782 44.5887 25.3281 44.5887 22.661C44.5887 17.2043 42.0042 12.3621 37.4871 9.35833C34.8502 7.6052 32.0065 6.76362 28.7368 6.76927C22.7049 6.7796 17.4406 10.0044 14.6287 15.4121C13.9381 16.7401 13.5409 18.0061 12.6363 21.7697C12.1187 23.9215 11.7793 25.0746 11.6437 25.1421C11.5304 25.1972 11.2517 25.2991 11.0244 25.3666C10.4719 25.5306 10.3269 25.886 10.0513 27.7554C9.77275 29.6455 9.83891 32.8126 10.1951 34.6283C10.764 37.5281 12.675 41.924 13.456 42.1279C13.6136 42.1692 15.0629 42.0122 16.6784 41.778C18.2925 41.5452 19.7123 41.3923 19.8322 41.4377C20.0155 41.508 20.0528 41.7766 20.0528 43.0178C20.0528 44.9396 20.2733 45.7056 21.0494 46.4729C22.0225 47.4358 22.0087 47.4344 29.7141 47.4455C35.3119 47.4537 36.6711 47.4193 37.2141 47.2554ZM22.465 45.6422C21.7841 45.2675 21.7138 45.0209 21.7096 43.0068L21.7069 41.1085L22.2927 40.8536C23.3665 40.3853 24.188 39.2212 24.188 38.1687C24.188 37.9056 24.2611 37.6452 24.3507 37.5901C24.5671 37.4565 38.0109 37.2581 38.1473 37.3862C38.2066 37.4413 38.1915 37.929 38.1143 38.4676C38.0384 39.0063 37.9337 40.6938 37.8827 42.2161L37.7903 44.9851L37.3258 45.3942L36.8599 45.802L29.801 45.7979C24.9324 45.7951 22.6552 45.7469 22.465 45.6422ZM23.9441 35.5471C23.7966 35.3074 22.9612 29.8921 23.0577 29.8025C23.1115 29.7543 24.1467 29.425 25.3597 29.071C26.5727 28.7156 27.9374 28.3092 28.3922 28.1687C28.8471 28.0268 30.5219 27.5308 32.114 27.0666C33.7061 26.6023 35.3808 26.1064 35.8357 25.9645C38.4175 25.16 42.3791 24.0359 42.6355 24.0359C43.0201 24.0359 43.0256 24.3995 42.6589 25.9645C42.4563 26.8324 42.0276 27.8477 41.0007 29.8907C40.2384 31.406 39.4058 33.2658 39.1508 34.0235L38.6877 35.4011L36.5718 35.4989C33.1326 35.6559 24.0323 35.6918 23.9441 35.5471ZM22.1369 27.3008C21.7317 26.645 20.7516 25.9948 19.8239 25.7675C19.3622 25.6545 17.8556 25.5306 16.2869 25.4768C14.3475 25.4093 13.535 25.3336 13.4895 25.2151C13.4542 25.1242 13.8278 23.4215 14.3213 21.4336C15.0546 18.4717 15.3385 17.5639 15.8885 16.415C18.2966 11.3964 23.1391 8.344 28.7079 8.33422C31.2152 8.32981 33.1092 8.77354 35.2844 9.87576C39.4941 12.0084 42.3819 16.1684 42.9911 20.9721C43.0986 21.8276 43.2765 21.716 40.5224 22.526C39.5368 22.8153 37.8937 23.3002 36.8695 23.6033C35.8454 23.9064 34.172 24.4023 33.1478 24.7054C28.7492 26.0072 27.4687 26.3847 25.8421 26.8586C24.8938 27.1355 23.8531 27.4496 23.5292 27.5584C22.6635 27.8463 22.4512 27.8077 22.1369 27.3008ZM19.9645 23.4325C20.2154 23.3278 20.56 23.0647 20.7323 22.847C20.9915 22.5191 21.0342 22.3276 20.986 21.727C20.8536 20.1152 19.1788 19.5091 18.0292 20.658C17.6364 21.0506 17.5716 21.2104 17.5716 21.7876C17.5716 22.5467 17.8059 22.9655 18.4497 23.3581C18.9624 23.6708 19.3498 23.6901 19.9645 23.4325Z" fill="#004488"/>
</svg>
