<svg width="55" height="55" viewBox="0 0 55 55" fill="none" xmlns="http://www.w3.org/2000/svg">
<g clip-path="url(#clip0_10234_20287)">
<path d="M27.5 1.02441C42.1221 1.02441 53.9756 12.8779 53.9756 27.5C53.9756 42.1221 42.1221 53.9756 27.5 53.9756C12.8779 53.9756 1.02441 42.1221 1.02441 27.5C1.02442 12.8779 12.8779 1.02442 27.5 1.02441Z" fill="white" stroke="black" stroke-width="2.04878"/>
<path d="M25.3471 54.2827C25.3136 54.2519 24.8642 54.1848 24.3477 54.1338C19.9866 53.7099 14.9374 51.6508 11.0672 48.7197C9.88822 47.8263 7.4764 45.4358 6.50933 44.2016C3.38694 40.2161 1.43775 35.5774 0.844449 30.7199C0.708808 29.6092 0.706198 25.57 0.840344 24.3748C1.38413 19.5334 3.59219 14.3272 6.71216 10.5309C7.65763 9.38069 9.82342 7.26896 11.0002 6.35005C14.3364 3.74493 18.947 1.7029 22.9392 1.06293C25.1003 0.716441 28.5022 0.617785 30.5185 0.84314C32.6997 1.08699 35.5624 1.81514 37.5477 2.63138C46.0432 6.12294 52.1362 13.5717 53.8573 22.5705C54.1497 24.0958 54.2624 25.4882 54.2624 27.5675C54.2624 29.8265 54.143 31.0459 53.7272 33.0393C52.2904 39.913 48.1158 46.0274 42.1892 49.9404C39.2729 51.8654 34.7495 53.6093 31.6587 53.9997C31.2523 54.0507 30.8002 54.1218 30.6526 54.1566C30.2998 54.2411 25.4263 54.3565 25.3471 54.2827ZM29.998 47.9524C31.8398 47.6317 33.1129 46.953 34.5777 45.5096C36.3981 43.716 37.5585 41.9319 38.5659 39.3724L38.9885 38.2992L40.8571 38.22C43.202 38.1208 44.2028 37.7559 45.3014 36.6036C45.9896 35.8805 46.2109 35.1776 47.0896 30.9238C48.0004 26.5131 48.0219 26.1589 47.4464 24.902C46.8468 23.5927 45.5939 22.5209 43.9828 21.9373L43.1282 21.6275L43.0907 19.5965C43.0545 17.5789 43.0518 17.5628 42.7258 17.4394C42.5246 17.3629 42.3663 17.1698 42.3167 16.9417C42.0242 15.5895 41.4984 14.0004 41.0396 13.0796C39.6847 10.3608 37.2821 8.3868 34.2075 7.46427C32.1591 6.84975 31.4226 6.77476 27.4331 6.77476C23.453 6.77476 22.5931 6.8696 20.5246 7.53712C16.5069 8.83324 13.9282 11.7348 12.8753 16.1436C12.5996 17.2972 12.5491 17.3884 12.1404 17.4609C11.8893 17.5065 11.8678 17.642 11.805 19.575L11.738 21.6395L10.8294 22.0071C8.79626 22.8308 7.40382 24.419 7.16062 26.1938C7.04968 27.0027 8.59236 34.641 9.06804 35.6377C9.61013 36.7739 10.7732 37.6486 12.2745 38.0497C12.6435 38.1489 13.617 38.2294 14.4383 38.2308C15.4726 38.2321 15.9703 38.2831 16.0588 38.3998C16.1286 38.4924 16.3244 38.9605 16.4921 39.4394C17.2152 41.5053 18.5794 43.6409 20.2697 45.3566C21.7802 46.8872 23.2799 47.6908 25.2197 48.0074C26.4109 48.2019 28.7142 48.175 29.998 47.9524ZM25.8233 46.5988C24.3772 46.3144 23.9775 46.1977 23.3094 45.861C22.3946 45.4009 20.9096 44.0366 19.9826 42.8052C18.7109 41.1176 17.6793 38.8089 17.2339 36.6478C17.1186 36.0925 16.9415 35.4821 16.8396 35.2916C16.6464 34.9308 15.9636 32.2398 15.9636 31.8387C15.9636 31.7126 16.095 31.4684 16.256 31.2981L16.5485 30.9855L16.3137 29.7393C16.0374 28.2677 15.9797 28.155 15.4002 27.9619C15.0246 27.8358 14.9306 27.715 14.775 27.1543C14.5121 26.2019 14.4222 23.1219 14.6208 21.8877C15.0554 19.1927 16.4988 16.4628 18.46 14.629C20.1248 13.0707 22.086 11.9754 24.2807 11.3779C25.2532 11.1129 25.7361 11.0679 27.5672 11.0704C29.389 11.0728 29.8732 11.1191 30.7707 11.3767C35.5785 12.7561 38.9751 16.1757 40.1877 20.8615C40.6693 22.7208 40.6841 25.1582 40.2226 26.8297C39.9087 27.9699 39.9087 27.9699 39.462 27.9699C39.1991 27.9699 38.9482 28.0625 38.8517 28.1939C38.7618 28.3173 38.5766 29.0082 38.4412 29.7299L38.193 31.0419L38.6209 31.3987L39.0502 31.7569L38.5632 33.6188C38.2949 34.6437 37.9609 35.9945 37.8201 36.6223C37.1332 39.6889 35.9729 41.9225 33.9781 44.0165C32.4368 45.6357 31.3475 46.2514 29.5124 46.5425C28.678 46.6753 26.3868 46.7102 25.8233 46.5988ZM14.3592 17.2194C14.3485 16.6882 15.0353 14.5727 15.5289 13.6212C15.8656 12.9703 16.3741 12.3189 17.1642 11.5231C18.1233 10.5588 18.5204 10.2667 19.5855 9.74503C21.7802 8.67012 22.4241 8.55837 26.8294 8.48741C31.8116 8.40719 33.2658 8.62974 35.616 9.83223C37.038 10.5594 38.7685 12.2611 39.466 13.6162C40.1287 14.9054 40.837 17.3066 40.5526 17.3039C40.4936 17.3039 40.1784 16.8706 39.8524 16.3421C35.4926 9.27646 25.924 7.37037 19.0758 12.2034C17.7585 13.1337 16.2426 14.6907 15.435 15.941C15.0715 16.5071 14.6811 17.0906 14.5698 17.2382C14.3672 17.5051 14.3659 17.5051 14.3592 17.2194Z" fill="#004488"/>
</g>
<defs>
<clipPath id="clip0_10234_20287">
<rect width="55" height="55" rx="10" fill="white"/>
</clipPath>
</defs>
</svg>
