<svg width="55" height="55" viewBox="0 0 55 55" fill="none" xmlns="http://www.w3.org/2000/svg">
<g clip-path="url(#clip0_10340_25416)">
<path d="M27.5 1.02441C42.1221 1.02441 53.9756 12.8779 53.9756 27.5C53.9756 42.1221 42.1221 53.9756 27.5 53.9756C12.8779 53.9756 1.02441 42.1221 1.02441 27.5C1.02443 12.8779 12.8779 1.02443 27.5 1.02441Z" fill="white" stroke="black" stroke-width="2.04878"/>
<path d="M25.205 54.2768C25.1768 54.25 24.7931 54.1909 24.3545 54.1453C19.5829 53.6409 14.3565 51.4275 10.5307 48.2912C9.386 47.3535 7.12268 45.0301 6.28588 43.9341C3.31266 40.0412 1.42214 35.4507 0.844481 30.7207C0.710877 29.6274 0.705668 25.7385 0.836097 24.4614C1.31992 19.726 3.5941 14.3334 6.71018 10.5316C7.64841 9.38697 9.97169 7.12365 11.0673 6.28684C14.9293 3.33696 19.9357 1.29829 24.447 0.838286C25.7067 0.709772 29.4587 0.710266 30.6017 0.839104C35.4202 1.38206 40.5299 3.5414 44.4027 6.67077C45.5912 7.63072 47.8449 9.9304 48.7141 11.0682C50.5184 13.4296 52.0691 16.3643 52.976 19.1304C53.4307 20.5175 53.7151 21.749 54.1337 24.1475C54.2785 24.9819 54.3174 29.4168 54.1873 30.4524C53.5676 35.4118 51.6908 40.0372 48.7141 43.9341C47.8449 45.073 45.5899 47.3723 44.4027 48.3314C42.8493 49.5857 41.1483 50.6629 39.238 51.6006C36.7268 52.832 34.4892 53.5202 30.988 54.1373C30.4742 54.2285 25.2895 54.3533 25.205 54.2768ZM36.5229 47.8297C37.199 47.5467 37.7973 47.002 38.1313 46.3648C38.3942 45.8631 38.4305 45.5251 38.515 42.7268C38.6612 37.8532 39.2783 35.5674 41.5561 31.4491C42.5421 29.6676 43.0907 27.8942 43.3349 25.7036C43.5777 23.5291 43.3644 23.0274 42.3234 23.3171L41.921 23.4285L41.8418 25.0959C41.7224 27.6112 41.3817 28.6293 39.3802 32.4646C37.7718 35.5473 37.1614 38.1739 37.0407 42.5256C36.9481 45.8645 36.8851 46.1167 36.0561 46.4064C35.7838 46.5003 33.4348 46.55 29.1502 46.55C22.1518 46.55 22.1035 46.5459 21.7024 45.8444C21.5884 45.6445 21.5079 44.7309 21.4636 43.1292L21.3965 40.7146L20.1222 40.6448C18.6211 40.563 17.8108 40.225 17.0717 39.3745C16.1997 38.3697 16.0978 37.9512 16.0951 35.3715C16.0951 34.1052 16.0495 32.9985 15.9945 32.914C15.9354 32.8214 15.3787 32.7423 14.5993 32.7128C13.4461 32.6712 13.2634 32.6296 12.9559 32.3412C12.7033 32.1037 12.6099 31.8797 12.6099 31.5121C12.6099 31.2358 13.0023 29.398 13.4819 27.4287C13.9615 25.4608 14.3539 23.737 14.3539 23.5988C14.3539 23.289 13.784 23.1213 13.305 23.2903C13.0902 23.3654 12.924 23.5586 12.8546 23.8121C12.6191 24.6747 11.2435 30.4202 11.13 31.0145C10.803 32.7302 12.1218 34.2045 13.9849 34.2071L14.488 34.2085L14.4893 35.4493C14.4893 37.094 14.6664 38.0961 15.1319 39.0901C15.859 40.6422 17.4835 41.8441 19.1831 42.0882L19.9209 42.1929L19.992 44.0696C20.0712 46.1314 20.1624 46.4252 20.9659 47.1965C21.8178 48.0148 21.795 48.0135 29.2616 48.0202C34.9279 48.0242 36.1312 47.9934 36.5229 47.8297ZM19.8485 26.8841C21.5602 26.1986 21.0826 23.7008 19.2395 23.7008C18.5982 23.7008 17.8926 24.1314 17.6981 24.6412C17.352 25.5507 17.8041 26.6319 18.6506 26.923C19.2569 27.1323 19.2261 27.1336 19.8485 26.8841ZM44.3973 21.6725C44.5824 21.4498 44.4952 20.2412 44.184 18.7253C42.4173 10.0904 34.0627 4.47855 25.4008 6.10763C22.2014 6.70914 19.4179 8.19736 17.0207 10.5865C15.1171 12.4828 13.9404 14.3803 13.1443 16.8365C12.4335 19.0298 12.4966 18.9212 11.7246 19.274C11.3377 19.451 10.5788 19.6885 10.0381 19.8012C8.91381 20.0346 8.49353 20.2626 8.31122 20.7429C8.13281 21.2124 8.15132 21.698 8.3508 21.7785C8.44309 21.816 16.5552 21.8509 26.3774 21.8563C41.8472 21.8657 44.2578 21.8415 44.3973 21.6725Z" fill="#004488"/>
</g>
<defs>
<clipPath id="clip0_10340_25416">
<rect width="55" height="55" fill="white"/>
</clipPath>
</defs>
</svg>
