<svg width="55" height="55" viewBox="0 0 55 55" fill="none" xmlns="http://www.w3.org/2000/svg">
<g clip-path="url(#clip0_10234_20288)">
<path d="M27.5557 1.02441C42.1775 1.02453 54.0312 12.8781 54.0312 27.5C54.0311 42.1218 42.1775 53.9755 27.5557 53.9756C12.9338 53.9756 1.08019 42.1219 1.08008 27.5C1.08008 12.878 12.9337 1.02441 27.5557 1.02441Z" fill="white" stroke="black" stroke-width="2.04877"/>
<path d="M25.2618 54.2772C25.2323 54.2504 24.8486 54.19 24.4099 54.1444C20.5224 53.7339 16.3505 52.2127 12.8667 49.9363C11.0967 48.7799 9.93498 47.8114 8.29599 46.1265C4.17263 41.8889 1.61295 36.5566 0.900144 30.7199C0.766541 29.6267 0.761332 25.7378 0.89176 24.4607C1.35177 19.9588 3.40492 14.9123 6.3415 11.0677C7.26267 9.86168 9.49901 7.60268 10.7875 6.57673C14.73 3.43706 19.7953 1.31782 24.5025 0.837797C25.7621 0.709284 29.5142 0.709778 30.6571 0.838615C35.6138 1.39712 40.7837 3.62218 44.6592 6.86434C48.9076 10.4189 51.9138 15.0236 53.3585 20.1895C53.6523 21.2412 53.7999 21.9455 54.1875 24.1468C54.3337 24.9772 54.3727 29.412 54.2425 30.4516C53.6214 35.4217 51.7528 40.0283 48.7694 43.9333C47.9001 45.0721 45.6452 47.3714 44.458 48.3305C40.6509 51.4065 36.5246 53.192 31.0434 54.135C30.5189 54.2249 25.3449 54.3523 25.2618 54.2772ZM29.7919 48.2138C31.4714 47.9643 32.2239 47.6933 33.442 46.9005C36.208 45.1017 38.6334 41.6541 39.779 37.8967C40.003 37.1589 40.2337 36.464 40.2914 36.354C40.3491 36.2414 40.6549 36.122 40.9849 36.0831C41.7442 35.9932 42.4337 35.5626 43.0843 34.7711C45.507 31.8266 46.6378 26.7398 45.228 25.1341C44.7289 24.5654 44.407 24.3843 43.7309 24.2877L43.2037 24.2139L43.2332 22.6041C43.3472 16.3785 39.9654 10.873 34.33 8.10451C31.1239 6.52992 27.4859 6.10508 24.0451 6.90391C18.8174 8.11779 14.4537 12.0209 12.6852 17.0626C12.0664 18.8266 11.8337 20.2258 11.8087 22.3305L11.7863 24.2032L11.2534 24.3427C10.0748 24.6512 9.52933 25.275 9.32409 26.5507C8.96136 28.8017 10.3363 32.936 12.0938 34.8784C12.9474 35.8215 13.1522 35.9489 14.1301 36.1461L14.8574 36.2937L15.3511 37.9383C16.2459 40.9136 17.5833 43.1713 19.7001 45.2747C21.7472 47.3097 23.2093 48.0354 25.7447 48.2769C27.6133 48.4539 28.2398 48.4432 29.7919 48.2138ZM24.8124 46.5491C23.5098 46.3157 22.2341 45.543 20.843 44.1452C18.5183 41.8097 17.421 39.7399 16.4162 35.7947C16.2606 35.1803 16.0366 34.5713 15.9212 34.4425C15.6623 34.1567 15.221 34.1406 14.8709 34.4049C14.4993 34.6853 14.1266 34.6544 13.7254 34.3083C12.0586 32.8676 10.4281 28.3939 10.9133 26.5923C11.0442 26.1053 11.4594 25.6224 11.7461 25.6224C11.7977 25.6224 12.0107 25.7633 12.2192 25.935C12.7921 26.4072 13.0116 26.4434 13.4095 26.1295C13.7172 25.888 13.7584 25.774 13.6991 25.3327C13.6611 25.0496 13.6861 24.7827 13.7546 24.7411C13.8232 24.6982 14.3262 24.9047 14.8709 25.1985C15.4168 25.4923 15.8984 25.6989 15.9413 25.656C16.1144 25.4816 16.0057 24.7129 15.7777 24.5063C15.6449 24.3856 15.0855 24.0569 14.5368 23.7752L13.5375 23.2628L13.5417 21.5927C13.5483 18.9916 14.2525 16.75 15.7804 14.4656C17.6463 11.6753 20.4124 9.65295 23.762 8.62983C24.8513 8.29701 25.1263 8.26911 27.4215 8.26026C29.6161 8.25167 30.0347 8.28655 31.0434 8.56101C34.8706 9.60278 38.2336 12.278 40.0258 15.7064C41.1084 17.7776 41.7013 20.2231 41.6154 22.2674L41.5738 23.2722L40.6053 23.7524C39.3068 24.3963 39.0922 24.6069 39.0922 25.2401C39.0922 25.5245 39.1176 25.7566 39.1485 25.7566C39.1807 25.7566 39.6529 25.5151 40.2002 25.22C40.7475 24.9249 41.2345 24.7236 41.2841 24.7733C41.3324 24.8216 41.3726 25.0845 41.3726 25.3555C41.3726 26.2609 42.2365 26.6084 42.8536 25.9524C43.2466 25.5339 43.6048 25.5701 43.9737 26.0664C44.3574 26.5829 44.3413 28.1122 43.9361 29.5717C43.5364 31.0084 42.5974 32.9266 41.9092 33.7074C41.1432 34.5766 40.9527 34.6625 40.3531 34.4116C39.7414 34.1567 39.3054 34.1514 39.1015 34.3982C39.0143 34.5028 38.8011 35.2125 38.628 35.9744C37.5294 40.8144 34.389 45.1124 31.077 46.3116C30.4237 46.5491 29.9381 46.5974 27.891 46.6296C26.563 46.6497 25.1773 46.6135 24.8124 46.5491ZM23.5407 33.4444C24.5213 33.0071 25.3785 32.0091 25.6991 30.9292C25.8762 30.3282 25.8413 24.6794 25.6588 24.4594C25.5421 24.3199 24.7976 24.2836 22.2073 24.2904C18.3278 24.3011 16.8669 24.4071 16.6724 24.6874C16.5839 24.8149 16.5651 25.9202 16.6174 27.8251C16.6832 30.2598 16.7395 30.8608 16.9421 31.3196C17.4156 32.39 18.3747 33.2352 19.5499 33.6202C20.4003 33.8992 22.7546 33.7945 23.5407 33.4444ZM19.849 32.6342C19.4828 32.5416 18.69 32.0185 18.3399 31.6402C17.7536 31.0057 17.6544 30.512 17.6074 27.9753L17.5618 25.5701L18.0313 25.4507C18.5397 25.3219 24.5508 25.2562 24.6729 25.3783C24.8338 25.5392 24.9063 29.852 24.756 30.398C24.5173 31.2673 23.876 32.0372 23.0873 32.4048C22.5104 32.6731 22.1939 32.7268 21.2508 32.7147C20.623 32.708 19.9925 32.6718 19.849 32.6342ZM22.8096 31.9393C23.4978 31.6268 23.9981 30.9815 24.2114 30.1377C24.4099 29.3449 24.308 26.2113 24.0759 25.9792C23.8667 25.77 18.9167 25.7968 18.3868 26.0088L18.0032 26.163L18.0944 28.139C18.144 29.2269 18.2419 30.3014 18.3117 30.5281C18.4686 31.0352 19.1474 31.7113 19.7752 31.9822C20.458 32.2774 22.1161 32.2532 22.8096 31.9393ZM36.1718 33.3599C36.6011 33.1493 37.1698 32.72 37.4703 32.378C38.3356 31.396 38.4308 30.9144 38.4335 27.5689C38.4335 25.9645 38.404 24.6204 38.3664 24.5828C38.1115 24.3293 29.537 24.1388 29.3854 24.3843C29.3505 24.4419 29.3009 25.8451 29.2767 27.5031C29.2284 30.7991 29.2767 31.1076 29.9984 32.166C30.814 33.3599 31.9838 33.82 34.063 33.7677C35.2207 33.7382 35.5132 33.6819 36.1718 33.3599ZM32.452 32.6181C31.4995 32.3055 30.8087 31.6375 30.4371 30.6649C30.2439 30.1592 30.2158 29.7004 30.26 27.7835C30.2882 26.5306 30.3593 25.4574 30.4156 25.3997C30.5565 25.2602 36.487 25.3072 37.08 25.4534L37.5495 25.5701L37.5039 27.9753C37.4757 29.5099 37.3979 30.5281 37.2892 30.7857C37.0183 31.4349 36.4227 32.0507 35.7251 32.4035C35.1738 32.6825 34.9001 32.7308 33.898 32.7187C33.2501 32.712 32.5995 32.6664 32.452 32.6181ZM35.4675 31.8937C35.7922 31.7274 36.2402 31.3638 36.4629 31.0835C36.86 30.5831 36.868 30.5415 36.9794 28.414C37.0518 27.0148 37.0451 26.2046 36.9592 26.1188C36.7473 25.9068 34.1905 25.7297 32.5861 25.8156C31.4284 25.8786 31.0743 25.9444 30.9428 26.1201C30.6839 26.4662 30.7148 29.9137 30.9831 30.5549C31.4579 31.6925 32.3299 32.1875 33.8658 32.1929C34.6533 32.1955 35.0074 32.1285 35.4675 31.8937ZM16.1063 29.1558C16.058 28.3697 16.0191 27.4709 16.0191 27.157C16.0191 26.6258 15.9749 26.5574 15.39 26.1697C14.9983 25.9108 14.7139 25.8008 14.6348 25.88C14.5073 26.0074 14.9889 29.1223 15.2398 29.7809C15.4088 30.2263 15.7455 30.5858 15.9937 30.5858C16.164 30.5858 16.1815 30.3752 16.1063 29.1558ZM39.5509 30.3296C39.677 30.1887 39.8662 29.7514 39.9681 29.357C40.2807 28.1591 40.5892 25.9927 40.4658 25.8692C40.4014 25.8049 40.0821 25.931 39.7414 26.1577L39.1311 26.5601L39.0452 27.5876C38.9969 28.1524 38.958 29.0579 38.958 29.5998C38.958 30.6569 39.0975 30.8299 39.5509 30.3296ZM28.7281 27.1356C28.7589 27.0457 28.6302 26.819 28.4437 26.6325C27.9876 26.1764 27.1827 26.1657 26.6689 26.607C26.4235 26.8177 26.3322 26.9961 26.3913 27.149C26.465 27.3422 26.6448 27.3717 27.5758 27.3381C28.2921 27.3126 28.6932 27.2416 28.7281 27.1356ZM28.7039 25.7431C28.7549 25.6627 28.6758 25.436 28.5309 25.2401C28.1056 24.6686 26.7803 24.6633 26.4758 25.2321C26.1901 25.766 26.3926 25.8907 27.5436 25.8907C28.1767 25.8907 28.6503 25.8303 28.7039 25.7431ZM18.3332 23.8047C18.8308 23.7605 19.2386 23.68 19.2386 23.6277C19.2386 23.5137 14.9567 23.0173 14.8548 23.1193C14.8159 23.1582 15.0774 23.3755 15.4356 23.6022C15.9977 23.9577 16.1774 24.0046 16.7569 23.9496C17.1258 23.9147 17.8355 23.8504 18.3332 23.8047ZM39.5711 23.6639C40.3531 23.2065 40.3384 23.0173 39.5281 23.1193C39.178 23.1622 38.2417 23.2695 37.4489 23.3554C36.6561 23.4426 36.0068 23.5606 36.0068 23.6183C36.0068 23.676 36.4146 23.7618 36.9123 23.8074C37.41 23.8544 37.9385 23.9121 38.0861 23.9349C38.7528 24.0382 39.0157 23.9899 39.5711 23.6639Z" fill="#004488"/>
</g>
<defs>
<clipPath id="clip0_10234_20288">
<rect width="55" height="55" rx="10" fill="white"/>
</clipPath>
</defs>
</svg>
