<svg width="55" height="55" viewBox="0 0 55 55" fill="none" xmlns="http://www.w3.org/2000/svg">
<g clip-path="url(#clip0_10344_26708)">
<path d="M27.5 1.02441C42.1221 1.02442 53.9756 12.8779 53.9756 27.5C53.9756 42.1221 42.1221 53.9756 27.5 53.9756C12.8779 53.9756 1.02442 42.1221 1.02441 27.5C1.02441 12.8779 12.8779 1.02441 27.5 1.02441Z" fill="white" stroke="black" stroke-width="2.04878"/>
<path d="M25.213 54.2866C25.1794 54.2557 24.7703 54.19 24.3035 54.1417C19.6821 53.6628 14.2854 51.3702 10.5307 48.2929C9.38599 47.3552 7.12267 45.0318 6.28587 43.9359C3.30407 40.0322 1.42382 35.4659 0.844481 30.7224C0.710877 29.6292 0.705668 25.7402 0.836097 24.4632C1.31108 19.8137 3.40414 14.7725 6.50721 10.8017C7.45402 9.59025 9.85644 7.21237 11.0672 6.28824C14.3136 3.81055 18.3299 1.97311 22.1343 1.22585C24.3209 0.796219 24.3343 0.794911 26.9636 0.739782C30.4111 0.667499 32.7654 1.00829 35.8843 2.0311C40.0388 3.39363 43.8258 5.80155 46.9541 9.07097C48.9448 11.1513 50.2474 13.0311 51.5915 15.7651C52.8431 18.3099 53.5433 20.6239 54.1322 24.1493C54.2758 25.0145 54.316 29.436 54.1886 30.4541C53.3877 36.8382 50.6484 42.3771 46.1277 46.7569C43.8445 48.9677 41.8672 50.3427 38.9992 51.7137C36.4933 52.9116 34.3832 53.5501 30.988 54.1377C30.4286 54.2343 25.3002 54.3657 25.213 54.2866ZM24.0365 48.9435C24.5959 48.7758 25.3042 48.0823 25.4209 47.5887C25.4598 47.4237 25.7241 45.3806 26.0085 43.0465C26.2929 40.7123 26.5679 38.735 26.6188 38.6532C26.7369 38.4613 28.2594 38.456 28.3775 38.6465C28.4258 38.7243 28.7021 40.7324 28.9905 43.1068C29.2803 45.4812 29.5513 47.5337 29.5928 47.6678C29.7471 48.1534 30.4769 48.8282 31.0027 48.9704C32.3388 49.3299 33.6709 48.36 33.6709 47.0266C33.6709 46.765 33.4589 44.789 33.1987 42.6373C32.9385 40.4843 32.7721 38.6787 32.8298 38.625C32.8861 38.57 33.0833 38.5056 33.2685 38.4801L33.6038 38.4359L33.6709 31.7285L33.738 25.0212L35.9514 24.9542L38.1648 24.8871L38.205 24.4726C38.2278 24.2405 38.1648 23.9923 38.0615 23.9065C37.9461 23.8099 37.0903 23.7401 35.7515 23.7173L33.6253 23.6798L32.8378 20.7393C32.4059 19.1228 32.1 17.7518 32.1577 17.6942C32.2503 17.6016 36.822 19.0772 37.0165 19.2637C37.0581 19.3039 37.9408 20.7057 38.9777 22.3799C40.9778 25.6061 41.3535 26.0273 42.2227 26.0273C43.3174 26.0273 44.1343 25.2144 44.1343 24.1251C44.1343 23.5912 43.9156 23.1713 42.047 20.1168C40.8987 18.2401 39.7652 16.519 39.5277 16.2923C39.1763 15.9583 38.3647 15.6377 35.1961 14.5766L31.2978 13.2719L27.2869 13.3121L23.2746 13.3522L19.5855 14.6209C16.6652 15.6256 15.8066 15.9757 15.4672 16.2977C15.1091 16.6371 11.6898 22.0177 11.0462 23.2532C10.3881 24.5182 11.3192 26.026 12.7578 26.0273C13.6528 26.0273 14.0111 25.6262 15.9904 22.4107C17.0099 20.754 17.8899 19.3522 17.9463 19.2959C18.0026 19.2395 19.01 18.8599 20.1852 18.4521C22.1974 17.7532 22.9486 17.5774 22.9325 17.8109C22.9285 17.8659 22.5743 19.21 22.145 20.7956L21.3657 23.6798L19.2435 23.7173C17.9087 23.7401 17.0542 23.8099 16.9388 23.9065C16.8355 23.9923 16.7725 24.2405 16.7953 24.4726L16.8355 24.8871L19.049 24.9542L21.2624 25.0212L21.3294 31.7285L21.3965 38.4359L21.7319 38.4801C21.9157 38.5056 22.1129 38.5687 22.1679 38.621C22.2229 38.6746 22.0565 40.4588 21.799 42.5863C21.54 44.7152 21.3294 46.6926 21.3294 46.9796C21.3294 48.0676 22.2322 49.0213 23.3255 49.0884C23.4288 49.0951 23.7481 49.0294 24.0365 48.9435ZM22.3892 47.8784C21.8996 47.3552 21.8982 47.4679 22.5126 42.5273L23.0063 38.57L24.3169 38.5311C25.4102 38.4989 25.6409 38.5284 25.708 38.7055C25.7522 38.8209 25.5644 40.8009 25.2894 43.1028C24.6844 48.1655 24.6361 48.2956 23.3175 48.2956C22.8882 48.2956 22.7004 48.2111 22.3892 47.8784ZM30.768 48.0998C30.6137 47.9924 30.4205 47.7349 30.3387 47.5296C30.1925 47.1661 29.2441 39.6794 29.2441 38.8946V38.5029H30.5828C31.8613 38.5029 31.9257 38.5163 31.9914 38.8048C32.1886 39.6633 33.0069 47.0413 32.9371 47.3217C32.7896 47.9106 32.2718 48.2956 31.6278 48.2956C31.3086 48.2956 30.9222 48.2071 30.768 48.0998ZM11.9636 25.0212C11.5036 24.6335 11.4056 24.1171 11.6886 23.5698C12.3057 22.3785 15.9099 16.7377 16.1286 16.621C16.7792 16.2722 22.7299 14.362 22.8346 14.4666C22.899 14.531 22.9325 15.081 22.911 15.69L22.8721 16.7967L20.1892 17.7022L17.5063 18.6077L15.6282 21.6448C14.5953 23.3149 13.6292 24.8012 13.4815 24.9488C13.0207 25.4062 12.4539 25.4344 11.9636 25.0212ZM41.603 25.0011C41.3709 24.7905 40.3514 23.2653 39.3359 21.6112L37.49 18.6037L34.8098 17.7103L32.1282 16.8168L32.0893 15.6994C32.0679 15.085 32.1014 14.531 32.1658 14.4666C32.2718 14.3606 38.2225 16.2735 38.8731 16.621C39.2822 16.8396 43.4636 23.7093 43.4636 24.1627C43.4636 24.651 42.9686 25.2023 42.4414 25.3029C42.1033 25.3673 41.941 25.3096 41.603 25.0011ZM24.5785 15.7343L24.616 14.0212H27.5002H30.3843V15.6981V17.3749L27.4626 17.4111L24.5409 17.4473L24.5785 15.7343ZM28.7638 12.1562C29.4413 11.873 30.328 11.0096 30.6231 10.3441C31.4253 8.5368 30.4152 6.26342 28.5653 5.71422C27.6826 5.4521 27.3258 5.44982 26.4793 5.70108C24.7743 6.20721 23.7454 8.03911 24.1948 9.76826C24.4899 10.9086 25.2626 11.7968 26.2714 12.1571C26.9247 12.3904 28.2044 12.39 28.7638 12.1562ZM26.4283 11.4683C25.4209 11.0138 24.8172 10.0901 24.8172 9.00483C24.8172 8.15864 24.9916 7.69811 25.5296 7.13027C26.093 6.5352 26.6564 6.30782 27.5699 6.30782C28.4244 6.30782 28.8618 6.49831 29.4708 7.13483C30.0127 7.70174 30.1831 8.15756 30.1831 9.04025C30.1831 9.8953 29.6693 10.8015 28.9221 11.2633C28.2809 11.6595 27.0709 11.7589 26.4283 11.4683Z" fill="#004488"/>
</g>
<defs>
<clipPath id="clip0_10344_26708">
<rect width="55" height="55" fill="white"/>
</clipPath>
</defs>
</svg>
