<svg width="35" height="35" viewBox="0 0 35 35" fill="none" xmlns="http://www.w3.org/2000/svg">
<path d="M17.5 0C27.165 0 35 7.83502 35 17.5C35 27.165 27.165 35 17.5 35C7.83502 35 0 27.165 0 17.5C0 7.83502 7.83502 0 17.5 0ZM20.1924 11.002C20.1834 11.0022 20.174 11.0016 20.165 11.002V11.0029C18.9255 11.0155 17.8393 11.5547 17.0176 12.3574C16.1691 11.5086 15.047 11.0011 13.791 11.001C11.0815 11.0013 9.00014 13.3745 9 16.1875C9.00004 18.8237 10.278 20.9587 11.7422 22.5137C13.0212 23.8719 14.5002 24.8532 15.5957 25.4238L16.04 25.6436C16.0352 25.6411 16.0255 25.6364 16.0703 25.6592C16.0915 25.67 16.0915 25.6708 16.0859 25.668C16.1067 25.6785 16.0688 25.6583 16.0898 25.6689L16.0947 25.6709C16.099 25.6731 16.0931 25.6706 16.0977 25.6729C16.0994 25.6737 16.1 25.674 16.1016 25.6748C16.1148 25.6815 16.1042 25.677 16.1172 25.6836L16.1279 25.6885H16.1289V25.6895L16.1328 25.6914C16.1434 25.6968 16.131 25.69 16.1416 25.6953C16.1598 25.7045 16.1312 25.6904 16.1484 25.6992C16.1551 25.7026 16.1585 25.7047 16.165 25.708C16.2064 25.729 16.1552 25.7023 16.1973 25.7236C16.1991 25.7246 16.2023 25.7266 16.2041 25.7275C16.2051 25.7281 16.2081 25.729 16.209 25.7295H16.21L16.2109 25.7305H16.2119L16.2129 25.7314C16.2446 25.7475 16.1963 25.7229 16.2285 25.7393C16.2492 25.7497 16.2394 25.7455 16.2598 25.7559L16.2666 25.7588C16.2687 25.7599 16.2649 25.7584 16.2676 25.7598L16.2764 25.7637L16.3076 25.7803C16.3097 25.7813 16.3209 25.7859 16.3232 25.7871C16.3655 25.8086 16.313 25.7826 16.3545 25.8037L16.4033 25.8281C16.4055 25.8292 16.408 25.83 16.4102 25.8311L16.4189 25.8359C16.4335 25.8433 16.4113 25.8325 16.4258 25.8398C16.4272 25.8406 16.4292 25.8411 16.4307 25.8418H16.4316L16.4326 25.8428C16.4355 25.8442 16.4315 25.8422 16.4346 25.8438C16.439 25.846 16.437 25.8464 16.4414 25.8486C16.4479 25.8519 16.4438 25.8493 16.4502 25.8525C16.467 25.8611 16.449 25.8508 16.4658 25.8594L16.4971 25.877C16.5041 25.8805 16.5067 25.8802 16.5137 25.8838C16.8819 26.0704 17.3191 26.0274 17.6426 25.7861C17.6484 25.7834 17.656 25.781 17.6641 25.7773C17.7056 25.7586 17.7381 25.7443 17.8008 25.7168C17.8444 25.6977 17.9003 25.6713 17.959 25.6426L17.96 25.6436C19.0729 25.1261 20.7981 24.066 22.2598 22.5137C23.7237 20.9588 25 18.8234 25 16.1875C24.9999 13.4504 23.0667 10.9129 20.21 11.002V11.001C20.2045 11.001 20.1978 11.0019 20.1924 11.002ZM20.2529 13.1494C21.594 13.0952 22.8495 14.3131 22.8496 16.1875C22.8496 18.0915 21.9304 19.7262 20.6924 21.041C19.4518 22.3584 17.9665 23.2695 17.0527 23.6943L17.0205 23.7109C17.0152 23.7136 17.007 23.7155 16.998 23.7197L16.9795 23.7109L16.9473 23.6943L16.5791 23.5117C15.6658 23.0347 14.393 22.1936 13.3076 21.041C12.0696 19.7262 11.1504 18.0915 11.1504 16.1875C11.1505 14.3751 12.4475 13.1507 13.791 13.1504C14.6955 13.1506 15.5352 13.6569 16.0479 14.6318C16.231 14.9801 16.5908 15.2002 16.9844 15.2061C17.3781 15.2116 17.7443 15.0012 17.9375 14.6582C18.4712 13.7112 19.3371 13.1504 20.21 13.1504C20.2242 13.1504 20.2387 13.15 20.2529 13.1494Z" fill="#DCE1E3"/>
</svg>
