<svg width="32" height="24" viewBox="0 0 32 24" fill="none" xmlns="http://www.w3.org/2000/svg">
<path d="M1.32031 5.13989H8.68031" stroke="white" stroke-linecap="round"/>
<path d="M1.32031 1V19.4H25.2403V4.94286H14.8599L11.2494 1H1.32031Z" stroke="white" stroke-width="2" stroke-linejoin="round"/>
<path d="M28.0011 13.109C28.0011 17.334 23.9172 20.124 22.0323 21.0009C21.8752 21.0806 21.6396 21.1603 21.5611 21.24C21.404 21.1603 21.2469 21.0806 21.0899 21.0009C19.205 20.124 15.1211 17.334 15.1211 13.109C15.1211 10.9567 16.6918 9.28264 18.5767 9.28264C19.8333 9.28264 20.9328 10.0001 21.5611 11.1958C22.1894 10.0798 23.2889 9.28264 24.5455 9.28264C26.5089 9.20293 28.0011 10.9567 28.0011 13.109Z" fill="#171717" stroke="white" stroke-width="2" stroke-linejoin="round"/>
</svg>
