<svg width="29" height="34" viewBox="0 0 29 34" fill="none" xmlns="http://www.w3.org/2000/svg">
<path d="M1 16.14H8.36" stroke="#C41320" stroke-linecap="round"/>
<path d="M1 12V30.4H24.92V15.9429H14.5396L10.9291 12H1Z" stroke="#C41320" stroke-width="2" stroke-linejoin="round"/>
<path d="M27.6798 24.109C27.6798 28.334 23.5959 31.124 21.711 32.0009C21.554 32.0806 21.3183 32.1603 21.2398 32.24C21.0827 32.1603 20.9257 32.0806 20.7686 32.0009C18.8837 31.124 14.7998 28.334 14.7998 24.109C14.7998 21.9567 16.3705 20.2826 18.2554 20.2826C19.512 20.2826 20.6115 21.0001 21.2398 22.1958C21.8681 21.0798 22.9676 20.2826 24.2242 20.2826C26.1876 20.2029 27.6798 21.9567 27.6798 24.109Z" fill="#171717" stroke="#C41320" stroke-width="2" stroke-linejoin="round"/>
</svg>
