<svg width="22" height="23" viewBox="0 0 22 23" fill="none" xmlns="http://www.w3.org/2000/svg">
<path fill-rule="evenodd" clip-rule="evenodd" d="M9.72757 0.9052L11.9759 0.90509C12.0438 0.908276 12.1035 0.916127 12.1874 0.934559C12.8022 1.06975 13.036 1.29268 13.6082 2.65803L13.7014 2.88326L14.061 3.783L14.0906 3.79528L14.5539 3.58349C15.563 3.12783 16.0832 2.9359 16.4329 2.88236L16.5054 2.87295L16.6374 2.86576C16.9524 2.86576 17.2731 2.9784 17.5186 3.17451L17.6347 3.27939L19.0721 4.72477L19.172 4.83141C19.6235 5.33362 19.6656 5.68967 19.1663 6.98732L19.0001 7.40594L18.6084 8.34182L18.6158 8.36009L19.5131 8.69846L19.9457 8.8711C21.0632 9.33244 21.2928 9.57833 21.4421 10.1431C21.4722 10.257 21.4829 10.3346 21.4864 10.4309L21.4879 10.5355V12.576C21.4879 12.7211 21.483 12.803 21.4476 12.9464C21.299 13.5493 21.0782 13.7789 19.7353 14.3517L19.5138 14.4451L18.6289 14.8057L18.6228 14.8208L18.9428 15.5266C19.7384 17.3123 19.7662 17.7038 19.2432 18.2919L19.1778 18.3635L17.7024 19.8523C17.4383 20.1219 17.062 20.2703 16.6979 20.2703C16.3886 20.2703 15.9029 20.1219 15.0751 19.7867L14.6318 19.6033L14.127 19.3878L14.0981 19.3998L13.8372 20.1063C13.1986 21.8054 12.9797 22.0813 12.3236 22.2523C12.2267 22.2775 12.1573 22.2883 12.0786 22.2927L11.9488 22.2955H9.92677C9.80057 22.2955 9.72935 22.2917 9.60401 22.2642C8.9894 22.1297 8.75471 21.9062 8.18137 20.5401L8.08793 20.3147L7.72772 19.4145L7.7 19.4029L7.02707 19.7084C5.95071 20.1869 5.48441 20.3325 5.15208 20.3325C4.84087 20.3325 4.52397 20.2221 4.27187 20.0241L4.15154 19.918L2.71618 18.4704L2.55227 18.2899C2.15864 17.8223 2.13929 17.4596 2.62245 16.2113L2.87422 15.5865L3.18156 14.857L3.17515 14.8413L2.47934 14.5795C1.0835 14.0446 0.653328 13.7982 0.44891 13.3485L0.393617 13.207L0.34743 13.0503C0.321295 12.9501 0.310142 12.8783 0.305611 12.7967L0.302734 12.662V10.6202C0.302734 10.474 0.307753 10.3914 0.343804 10.2468C0.478212 9.70771 0.668985 9.4683 1.67391 9.01358L2.0904 8.83196L3.1599 8.39524L3.16723 8.37725L2.76736 7.48634C2.10753 5.97297 2.05289 5.51218 2.46919 4.99753L2.52615 4.93001L2.66103 4.78565L4.09082 3.34515C4.35277 3.07916 4.72747 2.92922 5.09217 2.92922C5.35302 2.92922 5.73604 3.03344 6.34904 3.26789L6.96575 3.51476L7.66489 3.81064L7.69354 3.7986L7.9564 3.0875C8.60103 1.37612 8.83113 1.08992 9.5111 0.936213C9.59687 0.916824 9.65806 0.908557 9.72757 0.9052ZM11.4499 3.0423H10.2689L10.1024 3.43649C10.0392 3.59319 9.96786 3.77624 9.8873 3.98871L9.51819 4.98573C9.42967 5.22178 9.2619 5.41728 9.04622 5.53957L8.93454 5.59446L8.06688 5.95904C7.84782 6.05109 7.60587 6.0657 7.37963 6.00301L7.24608 5.95612L6.21959 5.5192L5.66512 5.29594L5.29244 5.15704L4.45541 6.00035L4.55392 6.25161C4.59242 6.34625 4.63672 6.45206 4.68724 6.56994L4.85786 6.96064L5.28575 7.90522C5.38824 8.13016 5.40967 8.38252 5.34917 8.61941L5.30302 8.75934L4.94824 9.62993C4.85431 9.86042 4.68419 10.0493 4.46881 10.1658L4.35749 10.2178L3.20547 10.6855L2.62958 10.9347L2.42188 11.0318V12.2407L2.67041 12.3495C2.76451 12.3892 2.87017 12.4326 2.98834 12.4798L3.38134 12.6338L4.3363 12.9919C4.57705 13.0796 4.77683 13.2517 4.90073 13.4745L4.9562 13.5901L5.31104 14.4581C5.40216 14.681 5.41551 14.927 5.35143 15.1565L5.30369 15.2919L4.89188 16.2677L4.6336 16.9114L4.50778 17.2532L5.34488 18.0974L5.59413 17.998C5.68594 17.9602 5.78656 17.9178 5.89625 17.8706L6.66511 17.5282L7.21958 17.2705C7.45161 17.1585 7.7146 17.1362 7.95964 17.205L8.08044 17.2469L8.9532 17.6107C9.18453 17.7072 9.37328 17.8826 9.48792 18.1043L9.53891 18.2188L9.7561 18.7722L10.0652 19.5312L10.2441 19.9459L10.3411 20.1562H11.5256L11.6947 19.7536L11.915 19.1855L12.2738 18.2142C12.3622 17.9761 12.5313 17.7789 12.7488 17.6561L12.8615 17.6011L13.7305 17.239C13.947 17.1488 14.1858 17.134 14.4095 17.1947L14.5416 17.2402L15.36 17.5907L15.9572 17.8363L16.2841 17.9636L16.4998 18.0425L17.3378 17.1977L17.1763 16.7953L16.9341 16.2374L16.5053 15.2936C16.4025 15.0683 16.381 14.8154 16.4418 14.578L16.4881 14.4379L16.8423 13.571C16.9357 13.3423 17.1042 13.1546 17.3176 13.0381L17.4279 12.9859L18.4036 12.5899L18.9017 12.3791L19.0386 12.3189L19.37 12.1658V10.9582L19.0378 10.8149L18.5877 10.6351L17.4518 10.2081C17.2116 10.1199 17.0125 9.94745 16.8892 9.72456L16.834 9.60906L16.4798 8.73752C16.3895 8.51516 16.3764 8.26995 16.4402 8.04122L16.4878 7.90628L16.8166 7.12986C16.9022 6.92453 16.9768 6.74245 17.0411 6.58152L17.1565 6.28723L17.2823 5.94334L16.4447 5.10113L16.1953 5.20078C16.0574 5.25757 15.8994 5.32498 15.7201 5.40369L15.5336 5.4862L14.5561 5.93391C14.3337 6.03681 14.0844 6.05821 13.8503 5.99727L13.7121 5.95082L12.8399 5.58879C12.6116 5.49402 12.4245 5.32229 12.309 5.10484L12.2574 4.99244L11.949 4.21334L11.7256 3.66752L11.6018 3.37723L11.4499 3.0423ZM10.8957 7.32078C13.2326 7.32078 15.1323 9.23863 15.1323 11.5983C15.1323 13.9582 13.2325 15.8777 10.8957 15.8777C8.55833 15.8777 6.6582 13.9585 6.6582 11.5983C6.6582 9.23829 8.55819 7.32078 10.8957 7.32078ZM10.8964 9.46002C9.72857 9.46002 8.77734 10.42 8.77734 11.5983C8.77734 12.7772 9.7291 13.7385 10.8964 13.7385C12.0628 13.7385 13.0144 12.777 13.0144 11.5983C13.0144 10.4202 12.0633 9.46002 10.8964 9.46002Z" fill="#DA0037"/>
</svg>
