<svg width="28" height="32" viewBox="0 0 28 32" fill="none" xmlns="http://www.w3.org/2000/svg">
<g filter="url(#filter0_d_668_34082)">
<path d="M22.2007 12.0342V20.5912C22.2007 21.4469 21.5007 22.1956 20.7007 22.1956H17.7007C16.9007 22.1956 16.2007 21.4469 16.2007 20.5912V17.4893C16.2007 16.2057 15.2007 15.1361 14.0007 15.1361C12.8007 15.1361 11.8008 16.2057 11.8008 17.4893V20.5912C11.8008 21.4469 11.1008 22.1956 10.3008 22.1956H7.30078C6.50078 22.1956 5.80078 21.4469 5.80078 20.5912V12.0342C5.80078 11.4994 6.00076 11.0715 6.40076 10.7507L13.2007 5.18862C13.7007 4.76077 14.5007 4.76077 15.0007 5.18862L21.8008 10.7507C22.0008 11.0715 22.2007 11.4994 22.2007 12.0342Z" fill="#DA0037"/>
<path d="M12.8838 4.80328C13.5684 4.22404 14.6314 4.22376 15.3164 4.80231L15.3174 4.80133L22.1172 10.3638L22.1816 10.4156L22.2256 10.4859C22.4514 10.8481 22.7011 11.3693 22.7012 12.0338V20.5914C22.7011 21.6908 21.8082 22.6956 20.7012 22.6959H17.7012C16.5939 22.6959 15.7013 21.6909 15.7012 20.5914V17.4888C15.701 16.4495 14.8935 15.6364 14.001 15.6363C13.1084 15.6363 12.301 16.4494 12.3008 17.4888V20.5914C12.3007 21.6909 11.408 22.6959 10.3008 22.6959H7.30078C6.19354 22.6959 5.30088 21.6909 5.30078 20.5914V12.0338C5.3009 11.3567 5.56265 10.7839 6.08398 10.3638L12.8838 4.80133V4.80328Z" stroke="#DA0037"/>
</g>
<defs>
<filter id="filter0_d_668_34082" x="0.800781" y="3.86774" width="26.4004" height="27.3279" filterUnits="userSpaceOnUse" color-interpolation-filters="sRGB">
<feFlood flood-opacity="0" result="BackgroundImageFix"/>
<feColorMatrix in="SourceAlpha" type="matrix" values="0 0 0 0 0 0 0 0 0 0 0 0 0 0 0 0 0 0 127 0" result="hardAlpha"/>
<feOffset dy="4"/>
<feGaussianBlur stdDeviation="2"/>
<feComposite in2="hardAlpha" operator="out"/>
<feColorMatrix type="matrix" values="0 0 0 0 0 0 0 0 0 0 0 0 0 0 0 0 0 0 0.25 0"/>
<feBlend mode="normal" in2="BackgroundImageFix" result="effect1_dropShadow_668_34082"/>
<feBlend mode="normal" in="SourceGraphic" in2="effect1_dropShadow_668_34082" result="shape"/>
</filter>
</defs>
</svg>
