<svg width="14" height="15" viewBox="0 0 14 15" fill="none" xmlns="http://www.w3.org/2000/svg">
<path fill-rule="evenodd" clip-rule="evenodd" d="M1 2.08333C1 1.48502 1.52323 1 2.16868 1H5.84166C6.11828 1 6.34252 1.20787 6.34252 1.46429C6.34252 1.7207 6.11828 1.92857 5.84166 1.92857H2.16868C2.07647 1.92857 2.00172 1.99786 2.00172 2.08333V12.9167C2.00172 13.0021 2.07647 13.0714 2.16868 13.0714H5.84166C6.11828 13.0714 6.34252 13.2793 6.34252 13.5357C6.34252 13.7921 6.11828 14 5.84166 14H2.16868C1.52323 14 1 13.515 1 12.9167V2.08333Z" fill="#C41320" stroke="#C41320" stroke-width="0.5" stroke-linecap="round" stroke-linejoin="round"/>
<path fill-rule="evenodd" clip-rule="evenodd" d="M12.9795 7.49993C12.9795 7.75635 12.7552 7.96422 12.4786 7.96422L6.17612 7.96422C5.8995 7.96422 5.67526 7.75635 5.67526 7.49993C5.67526 7.24351 5.8995 7.03564 6.17612 7.03564L12.4786 7.03564C12.7552 7.03564 12.9795 7.24351 12.9795 7.49993Z" fill="#C41320"/>
<path fill-rule="evenodd" clip-rule="evenodd" d="M9.50405 4.22245C9.70487 4.0461 10.0219 4.05404 10.2121 4.24019L13.2173 7.18067C13.4003 7.35974 13.4003 7.64021 13.2173 7.81929L10.2121 10.7598C10.0219 10.9459 9.70487 10.9539 9.50405 10.7775C9.30324 10.6012 9.29467 10.3073 9.48492 10.1211L12.1638 7.49998L9.48492 4.87881C9.29467 4.69266 9.30324 4.3988 9.50405 4.22245Z" fill="#C41320"/>
</svg>
