<svg width="24" height="12" viewBox="0 0 24 12" fill="none" xmlns="http://www.w3.org/2000/svg">
<rect y="10.5635" width="23.3748" height="1.2635" fill="#C41320"/>
<path d="M11.6876 0.139648C4.10655 0.139648 1.57955 7.08892 1.26367 10.5636H21.7956C21.585 7.08892 19.2686 0.139648 11.6876 0.139648Z" fill="#C41320"/>
<path d="M10.1074 0.139531L11.6868 6.14117L12.9503 0.139529C12.1922 -0.113172 10.6339 0.0342392 10.1074 0.139531Z" fill="#D9D9D9"/>
<path d="M3.84527 3.63249L7.02879 5.79959L5.29948 2.41706C4.81166 2.62149 4.07289 3.35754 3.84527 3.63249Z" fill="#D9D9D9"/>
<path d="M18.4127 2.46324L16.5379 5.82717L19.7529 3.80339C19.5058 3.33573 18.7069 2.66546 18.4127 2.46324Z" fill="#D9D9D9"/>
<line x1="1.26367" y1="10.3135" x2="22.1115" y2="10.3135" stroke="white" stroke-width="0.5"/>
</svg>
