<svg width="119" height="61" viewBox="0 0 119 61" fill="none" xmlns="http://www.w3.org/2000/svg">
<rect y="53.7773" width="118.999" height="6.43238" fill="#C41320"/>
<path d="M59.5007 0.709961C20.9064 0.709961 8.04169 36.0881 6.43359 53.7771H110.96C109.888 36.0881 98.095 0.709961 59.5007 0.709961Z" fill="#C41320"/>
<path d="M51.459 0.71034L59.4995 31.2641L65.9318 0.71033C62.0724 -0.576146 54.1391 0.174308 51.459 0.71034Z" fill="#D9D9D9"/>
<path d="M19.578 18.491L35.7851 29.5235L26.9813 12.3033C24.4979 13.3441 20.7368 17.0912 19.578 18.491Z" fill="#D9D9D9"/>
<path d="M93.7408 12.54L84.196 29.6654L100.563 19.3626C99.3055 16.9817 95.2381 13.5695 93.7408 12.54Z" fill="#D9D9D9"/>
<line x1="6.43359" y1="53.5273" x2="112.568" y2="53.5273" stroke="white" stroke-width="0.5"/>
</svg>
