<svg width="24" height="32" viewBox="0 0 24 32" fill="none" xmlns="http://www.w3.org/2000/svg">
<g filter="url(#filter0_d_668_34152)">
<path d="M12 1.83545C13.5945 1.83545 14.9999 3.23873 15 5.11377C15 6.98889 13.5945 8.39209 12 8.39209C10.4055 8.39209 9 6.98889 9 5.11377C9.00008 3.23873 10.4055 1.83545 12 1.83545Z" stroke="#DA0037" stroke-width="2"/>
<mask id="path-2-inside-1_668_34152" fill="white">
<path d="M19.9012 16.3449C19.9012 23.2975 21.4815 23.2975 12 23.2975C2.51852 23.2975 4.09876 23.2975 4.09876 16.3449C4.09876 12.5051 7.63627 9.3924 12 9.3924C16.3637 9.3924 19.9012 12.5051 19.9012 16.3449Z"/>
</mask>
<path d="M19.9012 16.3449H21.9012H19.9012ZM17.9012 16.3449C17.9012 17.2516 17.927 18.0414 17.952 18.714C17.9776 19.4047 18 19.9233 18 20.3644C18 21.3709 17.8504 21.2765 18.0263 21.083C18.192 20.9008 18.2218 21.09 17.052 21.1972C15.9811 21.2953 14.4157 21.2975 12 21.2975V25.2975C14.325 25.2975 16.1177 25.2996 17.4171 25.1805C18.6177 25.0704 20.0302 24.8251 20.986 23.7738C21.952 22.7113 22 21.3132 22 20.3644C22 19.8277 21.973 19.2056 21.9492 18.5656C21.9248 17.9075 21.9012 17.1764 21.9012 16.3449H17.9012ZM12 21.2975C9.58428 21.2975 8.0189 21.2953 6.94798 21.1972C5.77823 21.09 5.808 20.9008 5.97365 21.083C6.14955 21.2765 6 21.3709 6 20.3644C6 19.9233 6.02237 19.4047 6.048 18.714C6.07296 18.0414 6.09876 17.2516 6.09876 16.3449H2.09876C2.09876 17.1764 2.07518 17.9075 2.05076 18.5656C2.02701 19.2056 2 19.8277 2 20.3644C2 21.3132 2.04797 22.7113 3.014 23.7738C3.96977 24.8251 5.38226 25.0704 6.58288 25.1805C7.88233 25.2996 9.67498 25.2975 12 25.2975V21.2975ZM6.09876 16.3449C6.09876 13.8424 8.49279 11.3924 12 11.3924V7.3924C6.77974 7.3924 2.09876 11.1679 2.09876 16.3449H6.09876ZM12 11.3924C15.5072 11.3924 17.9012 13.8424 17.9012 16.3449H21.9012C21.9012 11.1679 17.2203 7.3924 12 7.3924V11.3924Z" fill="#DA0037" mask="url(#path-2-inside-1_668_34152)"/>
</g>
<defs>
<filter id="filter0_d_668_34152" x="0" y="0.835449" width="24" height="30.462" filterUnits="userSpaceOnUse" color-interpolation-filters="sRGB">
<feFlood flood-opacity="0" result="BackgroundImageFix"/>
<feColorMatrix in="SourceAlpha" type="matrix" values="0 0 0 0 0 0 0 0 0 0 0 0 0 0 0 0 0 0 127 0" result="hardAlpha"/>
<feOffset dy="4"/>
<feGaussianBlur stdDeviation="2"/>
<feComposite in2="hardAlpha" operator="out"/>
<feColorMatrix type="matrix" values="0 0 0 0 0 0 0 0 0 0 0 0 0 0 0 0 0 0 0.25 0"/>
<feBlend mode="normal" in2="BackgroundImageFix" result="effect1_dropShadow_668_34152"/>
<feBlend mode="normal" in="SourceGraphic" in2="effect1_dropShadow_668_34152" result="shape"/>
</filter>
</defs>
</svg>
