<svg width="24" height="24" viewBox="0 0 24 24" fill="none" xmlns="http://www.w3.org/2000/svg">
<path d="M7.01617 4.01179C6.95833 4.01203 6.90063 4.01334 6.8418 4.01475C5.25213 4.05253 3.30367 4.5165 0.876953 5.59528V17.0034C3.72555 15.6525 5.87936 15.2659 7.63727 15.4522C9.20767 15.6187 10.435 16.2332 11.5542 16.9141V5.52492C10.4659 4.69317 9.20134 4.11679 7.52439 4.02492C7.35939 4.01592 7.18961 4.01104 7.01613 4.01179H7.01617ZM16.9522 4.01179C16.7787 4.01104 16.609 4.01592 16.4439 4.02492C14.767 4.11679 13.5025 4.69317 12.4141 5.52492V16.9141C13.5333 16.2332 14.7607 15.6187 16.3311 15.4522C18.089 15.2659 20.2428 15.6525 23.0914 17.0035V5.59533C20.6647 4.51654 18.7162 4.05258 17.1265 4.0147C17.0677 4.01339 17.01 4.01208 16.9522 4.01189V4.01179ZM17.2203 16.2827C17.1716 16.2826 17.1231 16.2835 17.0752 16.2843C16.8498 16.2878 16.6332 16.3016 16.4234 16.3238C14.8329 16.4924 13.6295 17.1664 12.4142 17.9382V17.9513C12.107 17.858 11.8039 17.8402 11.5045 17.9058C10.306 17.1475 9.11369 16.4901 7.54502 16.3238C7.28275 16.296 7.00877 16.2824 6.7217 16.2843C5.21983 16.2943 3.35453 16.7427 0.877 17.9689V19.9625C3.72559 18.6114 5.87922 18.2249 7.63722 18.4113C8.50652 18.5034 9.2702 18.7321 9.96925 19.0338C9.74978 19.318 9.53294 19.6557 9.31886 20.0504H14.8105C14.5326 19.6651 14.2575 19.3279 13.9843 19.0398C14.6873 18.7349 15.4557 18.504 16.331 18.4113C18.0889 18.225 20.2426 18.6114 23.0913 19.9626V17.969C20.5994 16.7357 18.7265 16.2879 17.2202 16.2829L17.2203 16.2827Z" fill="black"/>
</svg>
