<svg width="29" height="29" viewBox="0 0 29 29" fill="none" xmlns="http://www.w3.org/2000/svg">
<g filter="url(#filter0_d_10040_28721)">
<path d="M13.0508 0.0107422C17.5993 0.24107 21.2168 4.00262 21.2168 8.6084L21.2051 9.05078C21.1167 10.7955 20.5069 12.4016 19.5312 13.7207L24.5127 18.7031L24.5811 18.7783C24.9017 19.1711 24.8789 19.751 24.5127 20.1172C24.1465 20.4831 23.5665 20.5061 23.1738 20.1855L23.0986 20.1172L18.1631 15.1816C16.6637 16.4501 14.7261 17.2168 12.6084 17.2168L12.165 17.2051C7.76338 16.9818 4.23364 13.4525 4.01074 9.05078L4 8.6084C4 3.8542 7.8542 0 12.6084 0L13.0508 0.0107422ZM12.6084 2C8.95877 2 6 4.95877 6 8.6084C6.00009 12.258 8.95882 15.2168 12.6084 15.2168C16.2579 15.2167 19.2167 12.2579 19.2168 8.6084C19.2168 4.95882 16.258 2.00009 12.6084 2Z" fill="white"/>
</g>
<defs>
<filter id="filter0_d_10040_28721" x="0" y="0" width="28.8057" height="28.4099" filterUnits="userSpaceOnUse" color-interpolation-filters="sRGB">
<feFlood flood-opacity="0" result="BackgroundImageFix"/>
<feColorMatrix in="SourceAlpha" type="matrix" values="0 0 0 0 0 0 0 0 0 0 0 0 0 0 0 0 0 0 127 0" result="hardAlpha"/>
<feOffset dy="4"/>
<feGaussianBlur stdDeviation="2"/>
<feComposite in2="hardAlpha" operator="out"/>
<feColorMatrix type="matrix" values="0 0 0 0 0 0 0 0 0 0 0 0 0 0 0 0 0 0 0.25 0"/>
<feBlend mode="normal" in2="BackgroundImageFix" result="effect1_dropShadow_10040_28721"/>
<feBlend mode="normal" in="SourceGraphic" in2="effect1_dropShadow_10040_28721" result="shape"/>
</filter>
</defs>
</svg>
