<svg width="35" height="35" viewBox="0 0 35 35" fill="none" xmlns="http://www.w3.org/2000/svg">
<path d="M17.5 0C27.165 0 35 7.83502 35 17.5C35 27.165 27.165 35 17.5 35C7.83502 35 0 27.165 0 17.5C0 7.83502 7.83502 0 17.5 0ZM17.5898 9.25C16.9756 9.25009 16.3442 9.52495 15.8896 10.04C15.8675 10.0652 15.8467 10.0923 15.8281 10.1201L15.7783 10.207L14.3672 13.0918C14.3076 13.1696 14.2159 13.2408 14.042 13.2881L10.7627 13.7285L10.7012 13.7393C9.37621 14.0313 8.69305 15.7018 9.79297 16.793C9.79629 16.7962 9.80034 16.7995 9.80371 16.8027L12.2266 19.1182H12.2275C12.2302 19.1209 12.241 19.1321 12.2539 19.1523C12.2668 19.1727 12.2777 19.1965 12.2861 19.2197C12.3037 19.2684 12.2998 19.293 12.2988 19.2969L12.2861 19.3594L11.7451 22.668L11.7402 22.7051C11.5843 24.0973 12.9913 25.1346 14.3203 24.5488C14.3333 24.5431 14.3467 24.5367 14.3594 24.5303L17.3262 23.0137C17.4185 22.9679 17.4855 22.958 17.5225 22.958C17.5561 22.958 17.5684 22.9658 17.5713 22.9678C17.5944 22.983 17.6189 22.9972 17.6436 23.0098L20.6182 24.5303V24.5283C21.9564 25.2461 23.5175 24.1003 23.2324 22.668L22.6914 19.3594L22.668 19.2646C22.6679 19.2656 22.6669 19.2576 22.6719 19.2402C22.6762 19.2253 22.6839 19.2064 22.6963 19.1855L22.75 19.1182L25.1738 16.8027C25.1772 16.7995 25.1813 16.7963 25.1846 16.793C25.696 16.2855 25.8566 15.5771 25.6816 14.96C25.5034 14.3316 24.9768 13.8142 24.2139 13.7285H24.2148L20.8789 13.2812C20.8482 13.2771 20.8171 13.2747 20.7861 13.2744C20.7815 13.2725 20.771 13.2675 20.7539 13.2549C20.7142 13.2254 20.6649 13.1725 20.6104 13.0957L19.1992 10.207L19.1953 10.1992L19.1289 10.0801C18.7814 9.50563 18.1707 9.25007 17.5898 9.25ZM17.5898 10.75C17.7586 10.7501 17.8267 10.8172 17.8555 10.874L19.2939 13.8174C19.309 13.8481 19.3266 13.8778 19.3457 13.9062C19.5508 14.2114 19.9942 14.7371 20.708 14.7705L24.0156 15.2148C24.024 15.216 24.0326 15.2169 24.041 15.2178C24.118 15.2255 24.1577 15.2504 24.1787 15.2686C24.2024 15.2892 24.2258 15.3216 24.2393 15.3691C24.2668 15.4665 24.2465 15.6057 24.1299 15.7236L21.7041 18.043C21.7007 18.0462 21.6967 18.0495 21.6934 18.0527C21.2809 18.4619 21.0628 19.0704 21.2168 19.6387L21.752 22.9102C21.7543 22.9245 21.7576 22.939 21.7607 22.9531C21.7768 23.0256 21.7517 23.1181 21.6533 23.1904C21.5648 23.2554 21.45 23.2759 21.3213 23.2051L21.3008 23.1943L18.3398 21.6807C17.8024 21.3576 17.1732 21.415 16.6592 21.6699L16.6514 21.6738L13.71 23.1768C13.4216 23.3006 13.2111 23.0931 13.2305 22.8789L13.7666 19.6006L13.7656 19.5996C13.9048 18.9333 13.5787 18.345 13.2842 18.0527C13.2809 18.0495 13.2768 18.0462 13.2734 18.043L10.8477 15.7256C10.744 15.6215 10.7359 15.5192 10.7646 15.4307C10.7969 15.3316 10.8813 15.2411 11.0117 15.208L14.2979 14.7676C14.3249 14.7639 14.3524 14.7585 14.3789 14.752C14.891 14.6248 15.3324 14.3518 15.6318 13.9062C15.6509 13.8778 15.6686 13.8482 15.6836 13.8174L17.0742 10.9717C17.2396 10.8162 17.4347 10.7501 17.5898 10.75Z" fill="#DCE1E3"/>
</svg>
