<svg width="23" height="23" viewBox="0 0 23 23" fill="none" xmlns="http://www.w3.org/2000/svg">
<path d="M12.5255 4.5366L13.968 7.4879C14.1483 7.75619 14.4188 8.02449 14.7794 8.02449L18.1151 8.47165C19.0167 8.56108 19.2871 9.63428 18.6561 10.2603L16.2219 12.5856C15.9514 12.8539 15.8613 13.2116 15.9514 13.4799L16.4923 16.7889C16.6726 17.5938 15.7711 18.3093 14.9597 17.8621L11.9846 16.3418C11.7141 16.1629 11.3535 16.1629 10.9929 16.3418L8.01775 17.8621C7.20636 18.2199 6.39496 17.5938 6.48512 16.7889L7.02604 13.4799C7.1162 13.1222 6.9359 12.7644 6.75559 12.5856L4.32139 10.2603C3.6903 9.63428 4.05093 8.65052 4.86232 8.47165L8.19806 8.02449C8.55868 7.93505 8.82916 7.75619 9.00947 7.4879L10.4519 4.5366C11.083 3.82113 12.1649 3.82113 12.5255 4.5366Z" stroke="#1A1A1A" stroke-width="1.5" stroke-miterlimit="10" stroke-linecap="round" stroke-linejoin="round"/>
</svg>
