<svg width="48" height="48" viewBox="0 0 48 48" fill="none" xmlns="http://www.w3.org/2000/svg">
<circle cx="24" cy="24" r="24" fill="#171717"/>
<path d="M24.6865 15.9082C30.1397 15.9083 34.5613 20.329 34.5615 25.7823C34.5615 31.2356 30.1398 35.6572 24.6865 35.6573C19.2332 35.6571 14.8125 31.2356 14.8125 25.7823C14.8126 20.3291 19.2333 15.9084 24.6865 15.9082ZM24.6855 18.1026C20.4442 18.1028 17.006 21.541 17.0058 25.7823C17.0058 30.0237 20.4441 33.4627 24.6855 33.4629C28.927 33.4629 32.3661 30.0237 32.3662 25.7823C32.366 21.5409 28.9269 18.1026 24.6855 18.1026ZM24.6855 20.2969C25.2913 20.2969 25.783 20.7878 25.7832 21.3936V24.2305L27.6562 26.1035C28.0845 26.5319 28.0844 27.2269 27.6562 27.6553C27.2278 28.0837 26.5329 28.0837 26.1045 27.6553L23.9101 25.461C23.7044 25.2553 23.5889 24.9765 23.5888 24.6856V21.3936C23.589 20.7878 24.0797 20.297 24.6855 20.2969ZM17.3271 14.0352C17.7555 13.6068 18.4504 13.6069 18.8789 14.0352C19.3073 14.4636 19.3073 15.1585 18.8789 15.5869L15.5879 18.878C15.1594 19.3064 14.4646 19.3064 14.0361 18.878C13.6078 18.4495 13.6077 17.7546 14.0361 17.3262L17.3271 14.0352ZM30.4921 14.0352C30.9206 13.6068 31.6155 13.6068 32.0439 14.0352L35.3349 17.3262C35.7634 17.7546 35.7633 18.4495 35.3349 18.878C34.9065 19.3064 34.2126 19.3063 33.7841 18.878L30.4921 15.5869C30.0637 15.1585 30.0637 14.4636 30.4921 14.0352Z" fill="white"/>
</svg>
