<svg width="238" height="79" viewBox="0 0 238 79" fill="none" xmlns="http://www.w3.org/2000/svg">
<g filter="url(#filter0_d_12082_29878)">
<path d="M59.8633 67.6892L53.5388 62.6633C53.1933 62.738 52.8459 62.7968 52.4965 62.8398C52.1511 62.9145 51.8037 62.9733 51.4543 63.0163C48.0876 63.4301 45.0895 63.17 42.4599 62.2358C39.862 61.2978 37.7419 59.6562 36.0995 57.3111C34.4889 54.962 33.4512 51.8977 32.9866 48.1182C32.5181 44.3069 32.7827 41.0825 33.7803 38.4451C34.8059 35.772 36.4653 33.6658 38.7586 32.1265C41.0837 30.5833 43.9296 29.6047 47.2962 29.1909C50.7264 28.7692 53.7404 29.0274 56.3383 29.9654C58.9361 30.9035 61.0404 32.547 62.651 34.8961C64.2895 37.2094 65.343 40.2718 65.8115 44.0831C66.3152 48.1803 65.947 51.6108 64.707 54.3748C63.4987 57.1348 61.5673 59.2583 58.9129 60.7453L66.9618 66.8166L59.8633 67.6892ZM50.8979 58.4903C52.6448 58.2756 54.1559 57.848 55.4313 57.2076C56.7385 56.5633 57.7921 55.6923 58.5921 54.5945C59.4239 53.4927 59.9862 52.1662 60.2791 50.6149C60.6038 49.0597 60.6451 47.2975 60.4031 45.3283L60.2742 44.2802C60.0243 42.2475 59.5536 40.516 58.8619 39.0857C58.202 37.6515 57.3351 36.5006 56.2612 35.6332C55.2191 34.7618 53.9859 34.1719 52.5617 33.8633C51.1691 33.5509 49.5994 33.5021 47.8526 33.7168C46.1375 33.9276 44.6264 34.3552 43.3192 34.9995C42.0438 35.6399 40.9902 36.5109 40.1584 37.6127C39.3584 38.7105 38.8119 40.035 38.519 41.5864C38.2261 43.1377 38.2046 44.9297 38.4545 46.9624L38.5833 48.0105C38.8254 49.9797 39.2764 51.6814 39.9363 53.1156C40.5962 54.5498 41.4472 55.7026 42.4893 56.5739C43.5632 57.4414 44.7963 58.0313 46.1889 58.3438C47.6132 58.6523 49.1828 58.7012 50.8979 58.4903ZM87.431 58.5937C84.636 58.9373 82.1675 58.7894 80.0255 58.15C77.8796 57.4788 76.1496 56.2567 74.8354 54.4838C73.5213 52.7109 72.6846 50.3634 72.3255 47.4414L69.813 27.0033L75.1489 26.3474L77.6789 46.9284C78.0107 49.6281 78.9752 51.573 80.5723 52.763C82.1695 53.953 84.2702 54.388 86.8746 54.0678C89.5108 53.7438 91.4754 52.8091 92.7685 51.2638C94.0934 49.7145 94.5899 47.5901 94.2581 44.8904L91.7281 24.3093L97.0639 23.6534L99.5763 44.0916C99.9355 47.0136 99.6764 49.4957 98.7991 51.538C97.9534 53.5764 96.555 55.183 94.6038 56.3579C92.6804 57.4971 90.2895 58.2424 87.431 58.5937ZM108.634 55.4069L104.617 22.7249L109.953 22.069L113.97 54.751L108.634 55.4069ZM119.326 54.0927L119.004 51.4724L134.546 23.6885L117.109 25.832L116.547 21.2584L141.892 18.1428L142.214 20.7631L126.577 48.5586L145.776 46.1985L146.339 50.7721L119.326 54.0927ZM149.567 50.3752L149.245 47.7549L164.787 19.9711L147.35 22.1145L146.788 17.5409L172.133 14.4253L172.455 17.0456L156.818 44.8412L176.017 42.481L176.58 47.0546L149.567 50.3752ZM179.808 46.6578L179.486 44.0375L195.028 16.2536L177.591 18.3971L177.029 13.8235L202.374 10.7079L202.697 13.3281L187.059 41.1237L206.259 38.7636L206.821 43.3372L179.808 46.6578Z" fill="white"/>
</g>
<g filter="url(#filter1_d_12082_29878)">
<path d="M165.238 67.168C164.538 67.168 163.945 67.0327 163.46 66.762C162.975 66.482 162.606 66.0573 162.354 65.488C162.102 64.9187 161.976 64.1953 161.976 63.318C161.976 62.4313 162.102 61.708 162.354 61.148C162.606 60.5787 162.979 60.1587 163.474 59.888C163.969 59.608 164.585 59.468 165.322 59.468C166.003 59.468 166.573 59.6033 167.03 59.874C167.497 60.1447 167.847 60.5367 168.08 61.05C168.323 61.5633 168.444 62.1933 168.444 62.94V63.584H163.026C163.026 64.228 163.115 64.7553 163.292 65.166C163.469 65.5767 163.721 65.8753 164.048 66.062C164.384 66.2393 164.795 66.328 165.28 66.328C165.635 66.328 165.943 66.2813 166.204 66.188C166.475 66.0947 166.694 65.9687 166.862 65.81C167.039 65.642 167.175 65.446 167.268 65.222C167.361 64.998 167.408 64.7647 167.408 64.522H168.388C168.388 64.886 168.318 65.2313 168.178 65.558C168.047 65.8753 167.851 66.1553 167.59 66.398C167.338 66.6407 167.016 66.832 166.624 66.972C166.232 67.1027 165.77 67.168 165.238 67.168ZM163.026 62.786H167.394C167.394 62.3193 167.338 61.932 167.226 61.624C167.123 61.3067 166.979 61.0547 166.792 60.868C166.605 60.672 166.381 60.532 166.12 60.448C165.868 60.364 165.583 60.322 165.266 60.322C164.809 60.322 164.417 60.4107 164.09 60.588C163.763 60.756 163.511 61.022 163.334 61.386C163.166 61.75 163.063 62.2167 163.026 62.786ZM174.588 67.154C174.252 67.154 173.982 67.0933 173.776 66.972C173.58 66.8507 173.44 66.6827 173.356 66.468C173.282 66.2533 173.244 66.0153 173.244 65.754V60.49H172.25V59.636H173.244L173.44 57.592H174.252V59.636H175.666V60.49H174.252V65.572C174.252 65.824 174.285 66.0107 174.35 66.132C174.425 66.2533 174.584 66.314 174.826 66.314H175.666V66.958C175.573 66.9953 175.461 67.028 175.33 67.056C175.209 67.0933 175.083 67.1167 174.952 67.126C174.822 67.1447 174.7 67.154 174.588 67.154ZM179.853 67.168C179.153 67.168 178.561 67.0327 178.075 66.762C177.59 66.482 177.221 66.0573 176.969 65.488C176.717 64.9187 176.591 64.1953 176.591 63.318C176.591 62.4313 176.717 61.708 176.969 61.148C177.221 60.5787 177.595 60.1587 178.089 59.888C178.584 59.608 179.2 59.468 179.937 59.468C180.619 59.468 181.188 59.6033 181.645 59.874C182.112 60.1447 182.462 60.5367 182.695 61.05C182.938 61.5633 183.059 62.1933 183.059 62.94V63.584H177.641C177.641 64.228 177.73 64.7553 177.907 65.166C178.085 65.5767 178.337 65.8753 178.663 66.062C178.999 66.2393 179.41 66.328 179.895 66.328C180.25 66.328 180.558 66.2813 180.819 66.188C181.09 66.0947 181.309 65.9687 181.477 65.81C181.655 65.642 181.79 65.446 181.883 65.222C181.977 64.998 182.023 64.7647 182.023 64.522H183.003C183.003 64.886 182.933 65.2313 182.793 65.558C182.663 65.8753 182.467 66.1553 182.205 66.398C181.953 66.6407 181.631 66.832 181.239 66.972C180.847 67.1027 180.385 67.168 179.853 67.168ZM177.641 62.786H182.009C182.009 62.3193 181.953 61.932 181.841 61.624C181.739 61.3067 181.594 61.0547 181.407 60.868C181.221 60.672 180.997 60.532 180.735 60.448C180.483 60.364 180.199 60.322 179.881 60.322C179.424 60.322 179.032 60.4107 178.705 60.588C178.379 60.756 178.127 61.022 177.949 61.386C177.781 61.75 177.679 62.2167 177.641 62.786ZM187.035 67.168C186.55 67.168 186.121 67.1167 185.747 67.014C185.374 66.9207 185.061 66.7807 184.809 66.594C184.567 66.398 184.38 66.1647 184.249 65.894C184.128 65.6233 184.067 65.3107 184.067 64.956C184.067 64.9187 184.067 64.8813 184.067 64.844C184.067 64.7973 184.072 64.7553 184.081 64.718H185.075C185.066 64.7647 185.061 64.8067 185.061 64.844C185.061 64.872 185.061 64.9 185.061 64.928C185.071 65.292 185.159 65.5767 185.327 65.782C185.495 65.978 185.733 66.118 186.041 66.202C186.349 66.286 186.704 66.328 187.105 66.328C187.451 66.328 187.759 66.2813 188.029 66.188C188.309 66.0853 188.529 65.9407 188.687 65.754C188.855 65.5673 188.939 65.3387 188.939 65.068C188.939 64.7227 188.832 64.4613 188.617 64.284C188.412 64.1067 188.141 63.9713 187.805 63.878C187.469 63.7753 187.119 63.668 186.755 63.556C186.457 63.472 186.163 63.3833 185.873 63.29C185.584 63.1873 185.318 63.0613 185.075 62.912C184.842 62.7627 184.655 62.5713 184.515 62.338C184.375 62.1047 184.305 61.8107 184.305 61.456C184.305 61.148 184.366 60.8727 184.487 60.63C184.618 60.3873 184.8 60.182 185.033 60.014C185.276 59.8367 185.57 59.7013 185.915 59.608C186.261 59.5147 186.653 59.468 187.091 59.468C187.577 59.468 187.992 59.524 188.337 59.636C188.683 59.748 188.963 59.902 189.177 60.098C189.392 60.2847 189.551 60.4993 189.653 60.742C189.756 60.9753 189.807 61.2227 189.807 61.484C189.807 61.5213 189.803 61.5633 189.793 61.61C189.793 61.6567 189.793 61.6987 189.793 61.736H188.799V61.554C188.799 61.358 188.748 61.1667 188.645 60.98C188.552 60.7933 188.379 60.6347 188.127 60.504C187.885 60.3733 187.521 60.308 187.035 60.308C186.746 60.308 186.494 60.336 186.279 60.392C186.074 60.4387 185.897 60.5087 185.747 60.602C185.607 60.6953 185.5 60.812 185.425 60.952C185.36 61.0827 185.327 61.2367 185.327 61.414C185.327 61.6847 185.411 61.8947 185.579 62.044C185.757 62.184 185.985 62.3007 186.265 62.394C186.545 62.478 186.844 62.5713 187.161 62.674C187.479 62.7673 187.801 62.8653 188.127 62.968C188.463 63.0707 188.771 63.1967 189.051 63.346C189.331 63.4953 189.555 63.696 189.723 63.948C189.891 64.1907 189.975 64.5127 189.975 64.914C189.975 65.2873 189.901 65.6187 189.751 65.908C189.602 66.188 189.397 66.4213 189.135 66.608C188.874 66.7947 188.561 66.9347 188.197 67.028C187.843 67.1213 187.455 67.168 187.035 67.168ZM193.141 67.154C192.805 67.154 192.534 67.0933 192.329 66.972C192.133 66.8507 191.993 66.6827 191.909 66.468C191.834 66.2533 191.797 66.0153 191.797 65.754V60.49H190.803V59.636H191.797L191.993 57.592H192.805V59.636H194.219V60.49H192.805V65.572C192.805 65.824 192.838 66.0107 192.903 66.132C192.978 66.2533 193.136 66.314 193.379 66.314H194.219V66.958C194.126 66.9953 194.014 67.028 193.883 67.056C193.762 67.0933 193.636 67.1167 193.505 67.126C193.374 67.1447 193.253 67.154 193.141 67.154Z" fill="white"/>
</g>
<defs>
<filter id="filter0_d_12082_29878" x="26.9076" y="10.083" width="184.674" height="68.5693" filterUnits="userSpaceOnUse" color-interpolation-filters="sRGB">
<feFlood flood-opacity="0" result="BackgroundImageFix"/>
<feColorMatrix in="SourceAlpha" type="matrix" values="0 0 0 0 0 0 0 0 0 0 0 0 0 0 0 0 0 0 127 0" result="hardAlpha"/>
<feOffset dy="4"/>
<feGaussianBlur stdDeviation="2"/>
<feComposite in2="hardAlpha" operator="out"/>
<feColorMatrix type="matrix" values="0 0 0 0 0 0 0 0 0 0 0 0 0 0 0 0 0 0 0.25 0"/>
<feBlend mode="normal" in2="BackgroundImageFix" result="effect1_dropShadow_12082_29878"/>
<feBlend mode="normal" in="SourceGraphic" in2="effect1_dropShadow_12082_29878" result="shape"/>
</filter>
<filter id="filter1_d_12082_29878" x="157.976" y="57.5918" width="40.243" height="17.5762" filterUnits="userSpaceOnUse" color-interpolation-filters="sRGB">
<feFlood flood-opacity="0" result="BackgroundImageFix"/>
<feColorMatrix in="SourceAlpha" type="matrix" values="0 0 0 0 0 0 0 0 0 0 0 0 0 0 0 0 0 0 127 0" result="hardAlpha"/>
<feOffset dy="4"/>
<feGaussianBlur stdDeviation="2"/>
<feComposite in2="hardAlpha" operator="out"/>
<feColorMatrix type="matrix" values="0 0 0 0 0 0 0 0 0 0 0 0 0 0 0 0 0 0 0.25 0"/>
<feBlend mode="normal" in2="BackgroundImageFix" result="effect1_dropShadow_12082_29878"/>
<feBlend mode="normal" in="SourceGraphic" in2="effect1_dropShadow_12082_29878" result="shape"/>
</filter>
</defs>
</svg>
