<svg width="27" height="27" viewBox="0 0 27 27" fill="none" xmlns="http://www.w3.org/2000/svg">
<rect width="27" height="27" rx="13.5" fill="#D9D9D9"/>
<path fill-rule="evenodd" clip-rule="evenodd" d="M14 7.00005V21.0001C14 21.891 12.9229 22.3371 12.2929 21.7072L8.58579 18.0001H5C4.44772 18.0001 4 17.5523 4 17.0001V11.0001C4 10.4478 4.44772 10.0001 5 10.0001H8.58579L12.2929 6.29294C12.9229 5.66298 14 6.10915 14 7.00005ZM18.1198 6.52538C18.382 6.03928 18.9886 5.85773 19.4747 6.11989C22.232 7.60695 24 10.6391 24 14.0001C24 17.361 22.232 20.3932 19.4747 21.8802C18.9886 22.1424 18.382 21.9608 18.1198 21.4747C17.8577 20.9886 18.0392 20.382 18.5253 20.1199C20.6285 18.9856 22 16.6334 22 14.0001C22 11.3667 20.6285 9.01446 18.5253 7.88021C18.0392 7.61806 17.8577 7.01148 18.1198 6.52538ZM12 9.41427L9.70711 11.7072C9.51957 11.8947 9.26522 12.0001 9 12.0001H6V16.0001H9C9.26522 16.0001 9.51957 16.1054 9.70711 16.2929L12 18.5858V9.41427ZM16.0923 10.5805C16.324 10.0791 16.9183 9.8606 17.4196 10.0923C18.979 10.8132 20 12.3141 20 14.0001C20 15.686 18.979 17.1869 17.4196 17.9078C16.9183 18.1395 16.324 17.921 16.0923 17.4197C15.8606 16.9183 16.0791 16.3241 16.5804 16.0923C17.4513 15.6898 18 14.8831 18 14.0001C18 13.117 17.4513 12.3103 16.5804 11.9078C16.0791 11.676 15.8606 11.0818 16.0923 10.5805Z" fill="#DA0037"/>
</svg>
