<svg width="27" height="27" viewBox="0 0 27 27" fill="none" xmlns="http://www.w3.org/2000/svg">
<rect width="27" height="27" rx="13.5" fill="#DA0037"/>
<path fill-rule="evenodd" clip-rule="evenodd" d="M14 7.00005V21.0001C14 21.891 12.9229 22.3371 12.2929 21.7072L8.58579 18.0001H5C4.44772 18.0001 4 17.5523 4 17.0001V11.0001C4 10.4478 4.44772 10.0001 5 10.0001H8.58579L12.2929 6.29294C12.9229 5.66298 14 6.10915 14 7.00005ZM12 9.41427L9.70711 11.7072C9.51957 11.8947 9.26522 12.0001 9 12.0001H6V16.0001H9C9.26522 16.0001 9.51957 16.1054 9.70711 16.2929L12 18.5858V9.41427ZM17.7071 10.2929L20 12.5851L22.2929 10.2929C22.6534 9.93246 23.2206 9.90473 23.6129 10.2098L23.7071 10.2929C24.0676 10.6534 24.0953 11.2207 23.7903 11.613L23.7071 11.7072L21.415 14.0001L23.7071 16.2929C24.0976 16.6835 24.0976 17.3166 23.7071 17.7072C23.3166 18.0977 22.6834 18.0977 22.2929 17.7072L20 15.4151L17.7071 17.7072C17.3466 18.0676 16.7794 18.0954 16.3871 17.7903L16.2929 17.7072C15.9324 17.3467 15.9047 16.7794 16.2097 16.3872L16.2929 16.2929L18.585 14.0001L16.2929 11.7072C15.9024 11.3166 15.9024 10.6835 16.2929 10.2929C16.6834 9.90242 17.3166 9.90242 17.7071 10.2929Z" fill="white"/>
</svg>
