<svg width="48" height="40" viewBox="0 0 48 40" fill="none" xmlns="http://www.w3.org/2000/svg">
<path d="M18.7979 37.838C29.1797 37.838 37.5958 29.4219 37.5958 19.0401C37.5958 8.65829 29.1797 0.242188 18.7979 0.242188C8.41611 0.242188 0 8.65829 0 19.0401C0 29.4219 8.41611 37.838 18.7979 37.838Z" fill="#C41320"/>
<path d="M23.2019 16.1679C22.8997 15.7738 22.5319 15.4322 22.1903 15.0906C21.31 14.3023 20.3115 13.7374 19.4706 12.9096C17.513 10.9914 17.0795 7.82512 18.3276 5.39453C17.0795 5.69671 15.989 6.3799 15.0562 7.12879C11.6534 9.86155 10.3133 14.6833 11.9161 18.8219C11.9687 18.9533 12.0212 19.0846 12.0212 19.2554C12.0212 19.5445 11.8242 19.8072 11.5614 19.9124C11.2592 20.0437 10.9439 19.9649 10.6943 19.7547C10.6154 19.689 10.5629 19.6233 10.5103 19.5313C9.0257 17.6526 8.78921 14.9592 9.78772 12.8045C7.59362 14.5913 6.39804 17.6131 6.56884 20.4642C6.64767 21.1211 6.7265 21.778 6.94985 22.4349C7.13378 23.2232 7.48852 24.0115 7.88267 24.7078C9.3016 26.9808 11.7585 28.6099 14.3993 28.9384C17.2109 29.2931 20.2195 28.7807 22.3742 26.8362C24.7785 24.6553 25.6194 21.1605 24.3844 18.165L24.2136 17.8234C23.9377 17.219 23.2019 16.1679 23.2019 16.1679ZM19.0502 24.4451C18.6823 24.7604 18.078 25.102 17.605 25.2334C16.1335 25.7589 14.662 25.0232 13.7949 24.156C15.3584 23.7882 16.2912 22.632 16.5671 21.4627C16.7904 20.4116 16.37 19.5445 16.1992 18.5328C16.0416 17.5606 16.0678 16.7329 16.4226 15.8263C16.6722 16.3256 16.935 16.8249 17.2503 17.219C18.2619 18.5328 19.8517 19.1109 20.1933 20.8977C20.2458 21.0817 20.2721 21.2656 20.2721 21.4627C20.3115 22.54 19.8385 23.7225 19.0502 24.4451Z" fill="white"/>
<path d="M37.1002 12.5504C35.9939 11.3062 34.4488 10.6211 32.7433 10.6211C31.0288 10.6211 29.4785 11.3021 28.3774 12.5385C27.2643 13.7886 26.722 15.4876 26.8493 17.3221C27.1017 20.9414 29.7457 23.8857 32.7433 23.8857C35.741 23.8857 38.3804 20.942 38.6368 17.3233C38.7659 15.5053 38.2201 13.8099 37.1002 12.5504Z" fill="black"/>
<path d="M42.7481 37.151H22.7374C22.4755 37.1546 22.2161 37.0972 21.9782 36.9832C21.7402 36.8691 21.5296 36.7013 21.3617 36.4918C20.9922 36.0317 20.8433 35.4035 20.9535 34.7681C21.4333 31.9956 22.9307 29.6665 25.2843 28.0315C27.3751 26.5801 30.0237 25.7812 32.7428 25.7812C35.4618 25.7812 38.1104 26.5807 40.2013 28.0315C42.5548 29.6659 44.0522 31.9949 44.532 34.7674C44.6423 35.4028 44.4933 36.0311 44.1238 36.4913C43.956 36.7008 43.7454 36.8688 43.5074 36.9829C43.2695 37.097 43.01 37.1545 42.7481 37.151Z" fill="black"/>
</svg>
