<svg width="48" height="40" viewBox="0 0 48 40" fill="none" xmlns="http://www.w3.org/2000/svg">
<path d="M18.7979 37.8145C29.1797 37.8145 37.5958 29.3984 37.5958 19.0166C37.5958 8.63486 29.1797 0.21875 18.7979 0.21875C8.41611 0.21875 0 8.63486 0 19.0166C0 29.3984 8.41611 37.8145 18.7979 37.8145Z" fill="#C41320"/>
<path d="M23.1144 19.7347L29.9423 26.5141L25.9159 30.492L19.1365 23.7126V22.5969L21.9987 19.7347H23.1144ZM24.218 16.6664L23.0417 15.5022L17.2325 21.3235V23.7126L10.4046 30.5405L6.42676 26.5141L13.2061 19.7347H15.5953L16.5412 18.7888L11.8842 14.1196H10.3076L6.89974 10.6754L10.0772 7.49792L13.4729 10.8937V12.4824L18.1906 17.1394L21.4165 13.9135L20.2523 12.6886L21.8289 11.0998H18.6029L17.8146 10.3115L21.8289 6.28516L22.6293 7.08558V10.3115L24.218 8.71069L28.1959 12.6886C29.5178 14.0226 29.5178 16.1935 28.1959 17.5154L25.8068 15.0777L24.218 16.6664Z" fill="white"/>
<path d="M37.1002 12.5269C35.9939 11.2828 34.4488 10.5977 32.7433 10.5977C31.0288 10.5977 29.4785 11.2787 28.3774 12.5151C27.2643 13.7652 26.722 15.4641 26.8493 17.2987C27.1017 20.918 29.7457 23.8623 32.7433 23.8623C35.741 23.8623 38.3804 20.9186 38.6368 17.2998C38.7659 15.4819 38.2201 13.7865 37.1002 12.5269Z" fill="black"/>
<path d="M42.7481 37.1275H22.7374C22.4755 37.131 22.2161 37.0737 21.9782 36.9597C21.7402 36.8457 21.5296 36.6779 21.3617 36.4684C20.9922 36.0083 20.8433 35.38 20.9535 34.7446C21.4333 31.9721 22.9307 29.643 25.2843 28.0081C27.3751 26.5567 30.0237 25.7578 32.7428 25.7578C35.4618 25.7578 38.1104 26.5572 40.2013 28.0081C42.5548 29.6425 44.0522 31.9715 44.532 34.744C44.6423 35.3794 44.4933 36.0077 44.1238 36.4678C43.956 36.6774 43.7454 36.8453 43.5074 36.9594C43.2695 37.0736 43.01 37.131 42.7481 37.1275Z" fill="black"/>
</svg>
