<svg width="48" height="40" viewBox="0 0 48 40" fill="none" xmlns="http://www.w3.org/2000/svg">
<path d="M18.7979 38.2833C29.1797 38.2833 37.5958 29.8672 37.5958 19.4854C37.5958 9.10361 29.1797 0.6875 18.7979 0.6875C8.41611 0.6875 0 9.10361 0 19.4854C0 29.8672 8.41611 38.2833 18.7979 38.2833Z" fill="#C41320"/>
<mask id="mask0_12215_94525" style="mask-type:luminance" maskUnits="userSpaceOnUse" x="3" y="5" width="24" height="24">
<path d="M26.6803 5.53906H3.6377V28.5817H26.6803V5.53906Z" fill="white"/>
</mask>
<g mask="url(#mask0_12215_94525)">
<path d="M17.1824 7.05123C16.5876 5.03501 13.7303 5.03501 13.1355 7.05123L12.9915 7.54088C12.9027 7.84273 12.7474 8.12086 12.537 8.35488C12.3267 8.5889 12.0666 8.77286 11.7759 8.89329C11.4852 9.01371 11.1712 9.06754 10.857 9.05083C10.5428 9.03412 10.2363 8.94729 9.96 8.7967L9.51355 8.55188C7.66582 7.54664 5.64528 9.56719 6.65195 11.4135L6.89534 11.8614C7.53765 13.0423 6.92846 14.5127 5.63952 14.8929L5.14986 15.0369C3.13364 15.6317 3.13364 18.489 5.14986 19.0838L5.63952 19.2278C5.94137 19.3166 6.2195 19.472 6.45351 19.6823C6.68753 19.8927 6.87149 20.1527 6.99192 20.4434C7.11234 20.7341 7.16617 21.0481 7.14946 21.3623C7.13275 21.6765 7.04592 21.983 6.89534 22.2593L6.65051 22.7058C5.64528 24.5535 7.66582 26.574 9.51211 25.5674L9.96 25.324C10.2363 25.1734 10.5428 25.0866 10.857 25.0698C11.1712 25.0531 11.4852 25.107 11.7759 25.2274C12.0666 25.3478 12.3267 25.5318 12.537 25.7658C12.7474 25.9998 12.9027 26.2779 12.9915 26.5798L13.1355 27.0694C13.7303 29.0857 16.5876 29.0857 17.1824 27.0694L17.3264 26.5798C17.4153 26.2779 17.5706 25.9998 17.7809 25.7658C17.9913 25.5318 18.2514 25.3478 18.5421 25.2274C18.8328 25.107 19.1467 25.0531 19.4609 25.0698C19.7752 25.0866 20.0817 25.1734 20.3579 25.324L20.8044 25.5688C22.6521 26.574 24.6727 24.5535 23.666 22.7072L23.4226 22.2593C23.272 21.983 23.1852 21.6765 23.1685 21.3623C23.1518 21.0481 23.2056 20.7341 23.326 20.4434C23.4464 20.1527 23.6304 19.8927 23.8644 19.6823C24.0984 19.472 24.3766 19.3166 24.6784 19.2278L25.1681 19.0838C27.1843 18.489 27.1843 15.6317 25.1681 15.0369L24.6784 14.8929C24.3766 14.804 24.0984 14.6487 23.8644 14.4384C23.6304 14.228 23.4464 13.968 23.326 13.6773C23.2056 13.3865 23.1518 13.0726 23.1685 12.7584C23.1852 12.4441 23.272 12.1377 23.4226 11.8614L23.6674 11.4149C24.6727 9.56719 22.6521 7.54664 20.8058 8.55332L20.3579 8.7967C20.0817 8.94729 19.7752 9.03412 19.4609 9.05083C19.1467 9.06754 18.8328 9.01371 18.5421 8.89329C18.2514 8.77286 17.9913 8.5889 17.7809 8.35488C17.5706 8.12086 17.4153 7.84273 17.3264 7.54088L17.1824 7.05123ZM15.159 21.28C14.0398 21.28 12.9666 20.8354 12.1752 20.0441C11.3839 19.2528 10.9393 18.1795 10.9393 17.0603C10.9393 15.9412 11.3839 14.8679 12.1752 14.0766C12.9666 13.2852 14.0398 12.8407 15.159 12.8407C16.2777 12.8407 17.3506 13.2851 18.1417 14.0762C18.9328 14.8672 19.3772 15.9402 19.3772 17.0589C19.3772 18.1776 18.9328 19.2506 18.1417 20.0416C17.3506 20.8327 16.2777 21.2771 15.159 21.2771V21.28Z" fill="white"/>
</g>
<path d="M37.1002 12.9996C35.9939 11.7555 34.4488 11.0703 32.7433 11.0703C31.0288 11.0703 29.4785 11.7513 28.3774 12.9878C27.2643 14.2378 26.722 15.9368 26.8493 17.7713C27.1017 21.3907 29.7457 24.3349 32.7433 24.3349C35.741 24.3349 38.3804 21.3913 38.6368 17.7725C38.7659 15.9545 38.2201 14.2592 37.1002 12.9996Z" fill="black"/>
<path d="M42.7481 37.6001H22.7374C22.4755 37.6037 22.2161 37.5464 21.9782 37.4324C21.7402 37.3184 21.5296 37.1505 21.3617 36.9411C20.9922 36.4809 20.8433 35.8527 20.9535 35.2173C21.4333 32.4447 22.9307 30.1157 25.2843 28.4807C27.3751 27.0293 30.0237 26.2305 32.7428 26.2305C35.4618 26.2305 38.1104 27.0299 40.2013 28.4807C42.5548 30.1151 44.0522 32.4441 44.532 35.2167C44.6423 35.8521 44.4933 36.4804 44.1238 36.9405C43.956 37.15 43.7454 37.318 43.5074 37.4321C43.2695 37.5462 43.01 37.6036 42.7481 37.6001Z" fill="black"/>
</svg>
