<svg width="48" height="40" viewBox="0 0 48 40" fill="none" xmlns="http://www.w3.org/2000/svg">
<path d="M18.7979 38.1622C29.1797 38.1622 37.5958 29.7461 37.5958 19.3643C37.5958 8.98251 29.1797 0.566406 18.7979 0.566406C8.41611 0.566406 0 8.98251 0 19.3643C0 29.7461 8.41611 38.1622 18.7979 38.1622Z" fill="#C41320"/>
<path fill-rule="evenodd" clip-rule="evenodd" d="M8.99712 17.3424L8.98503 17.3505C8.42272 17.7254 8.08496 18.3565 8.08496 19.0323V27.0463C8.08496 27.6045 8.53744 28.0569 9.0956 28.0569H10.1062C10.6644 28.0569 11.1169 27.6045 11.1169 27.0463V26.0357H25.2658V27.0463C25.2658 27.6045 25.7183 28.0569 26.2764 28.0569H27.2871C27.8452 28.0569 28.2977 27.6045 28.2977 27.0463V19.0323C28.2977 18.3565 27.96 17.7254 27.3977 17.3505L27.3856 17.3424C27.7539 17.1297 28.0875 16.9207 28.1523 16.8276C28.3086 16.603 28.3805 15.9293 28.1523 15.9293H26.2764L25.0932 13.5627C24.5796 12.5356 23.5297 11.8867 22.3813 11.8867H14.0013C12.8529 11.8867 11.8031 12.5356 11.2895 13.5627L10.1062 15.9293H8.23037C8.00223 15.9293 8.07405 16.603 8.23037 16.8276C8.29519 16.9207 8.62879 17.1297 8.99712 17.3424ZM12.2306 13.9674L10.5026 17.2074C10.323 17.544 10.567 17.9505 10.9484 17.9505H25.4343C25.8157 17.9505 26.0596 17.544 25.8801 17.2074L24.1521 13.9674C23.8008 13.3088 23.1151 12.8974 22.3686 12.8974H14.014C13.2676 12.8974 12.5818 13.3088 12.2306 13.9674ZM9.0956 21.0632V19.841C9.0956 19.451 9.51866 19.208 9.85553 19.4045L13.2299 21.3729C13.6949 21.6441 13.4698 22.3576 12.9333 22.3129L10.0223 22.0703C9.4985 22.0267 9.0956 21.5888 9.0956 21.0632ZM27.2871 19.841V21.0632C27.2871 21.5888 26.8842 22.0267 26.3604 22.0703L23.4494 22.3129C22.9129 22.3576 22.6878 21.6441 23.1528 21.3729L26.5272 19.4045C26.864 19.208 27.2871 19.451 27.2871 19.841Z" fill="white"/>
<path d="M37.1002 12.8746C35.9939 11.6305 34.4488 10.9453 32.7433 10.9453C31.0288 10.9453 29.4785 11.6263 28.3774 12.8628C27.2643 14.1128 26.722 15.8118 26.8493 17.6463C27.1017 21.2657 29.7457 24.2099 32.7433 24.2099C35.741 24.2099 38.3804 21.2663 38.6368 17.6475C38.7659 15.8295 38.2201 14.1342 37.1002 12.8746Z" fill="black"/>
<path d="M42.7486 37.4751H22.7379C22.476 37.4787 22.2166 37.4214 21.9786 37.3074C21.7407 37.1934 21.5301 37.0255 21.3622 36.8161C20.9927 36.3559 20.8437 35.7277 20.954 35.0923C21.4338 32.3197 22.9312 29.9907 25.2847 28.3557C27.3756 26.9043 30.0242 26.1055 32.7432 26.1055C35.4623 26.1055 38.1109 26.9049 40.2018 28.3557C42.5553 29.9901 44.0527 32.3191 44.5325 35.0917C44.6428 35.7271 44.4938 36.3554 44.1243 36.8155C43.9565 37.025 43.7459 37.193 43.5079 37.3071C43.2699 37.4212 43.0105 37.4786 42.7486 37.4751Z" fill="black"/>
</svg>
