<svg width="48" height="40" viewBox="0 0 48 40" fill="none" xmlns="http://www.w3.org/2000/svg">
<path d="M18.7979 37.9708C29.1797 37.9708 37.5958 29.5547 37.5958 19.1729C37.5958 8.79111 29.1797 0.375 18.7979 0.375C8.41611 0.375 0 8.79111 0 19.1729C0 29.5547 8.41611 37.9708 18.7979 37.9708Z" fill="#C41320"/>
<path d="M37.1002 12.6832C35.9939 11.439 34.4488 10.7539 32.7433 10.7539C31.0288 10.7539 29.4785 11.4349 28.3774 12.6714C27.2643 13.9214 26.722 15.6204 26.8493 17.4549C27.1017 21.0743 29.7457 24.0185 32.7433 24.0185C35.741 24.0185 38.3804 21.0749 38.6368 17.4561C38.7659 15.6381 38.2201 13.9427 37.1002 12.6832Z" fill="black"/>
<path d="M42.7481 37.2837H22.7374C22.4755 37.2873 22.2161 37.23 21.9782 37.116C21.7402 37.002 21.5296 36.8341 21.3617 36.6247C20.9922 36.1645 20.8433 35.5362 20.9535 34.9008C21.4333 32.1283 22.9307 29.7993 25.2843 28.1643C27.3751 26.7129 30.0237 25.9141 32.7428 25.9141C35.4618 25.9141 38.1104 26.7135 40.2013 28.1643C42.5548 29.7987 44.0522 32.1277 44.532 34.9003C44.6423 35.5357 44.4933 36.1639 44.1238 36.6241C43.956 36.8336 43.7454 37.0016 43.5074 37.1157C43.2695 37.2298 43.01 37.2872 42.7481 37.2837Z" fill="black"/>
<mask id="mask0_12215_94505" style="mask-type:luminance" maskUnits="userSpaceOnUse" x="4" y="8" width="24" height="22">
<path d="M27.8932 8.86328H4.85059V29.4803H27.8932V8.86328Z" fill="white"/>
</mask>
<g mask="url(#mask0_12215_94505)">
<path d="M27.7609 20.6262L24.8636 25.6256C24.6381 26.0147 24.3153 26.3375 23.9273 26.5618C23.5393 26.7861 23.0996 26.9042 22.6521 26.9042H6.65179C5.91078 26.9042 5.44909 26.0951 5.82245 25.4508L8.71973 20.4514C8.94521 20.0623 9.26805 19.7395 9.65608 19.5152C10.0441 19.2908 10.4838 19.1728 10.9313 19.1728H26.9316C27.6726 19.1728 28.1343 19.9819 27.7609 20.6262ZM10.9313 17.8842H24.0527V15.9514C24.0527 14.8839 23.193 14.0185 22.1325 14.0185H15.7318L13.1715 11.4414H6.7708C5.71028 11.4414 4.85059 12.3068 4.85059 13.3743V24.5705L7.61397 19.8021C8.29953 18.6191 9.57067 17.8842 10.9313 17.8842Z" fill="white"/>
</g>
</svg>
