<svg width="48" height="40" viewBox="0 0 48 40" fill="none" xmlns="http://www.w3.org/2000/svg">
<path d="M18.7979 38.2833C29.1797 38.2833 37.5958 29.8672 37.5958 19.4854C37.5958 9.10361 29.1797 0.6875 18.7979 0.6875C8.41611 0.6875 0 9.10361 0 19.4854C0 29.8672 8.41611 38.2833 18.7979 38.2833Z" fill="#C41320"/>
<path d="M7.19824 13.8906L17.1137 19.6288L26.9618 13.9243" stroke="white" stroke-width="2" stroke-linecap="round" stroke-linejoin="round"/>
<path d="M17.1133 29.8061V19.6211" stroke="white" stroke-width="2" stroke-linecap="round" stroke-linejoin="round"/>
<path d="M14.7892 8.32558L8.79271 11.6495C7.43397 12.4018 6.32227 14.2883 6.32227 15.838V22.1825C6.32227 23.7322 7.43397 25.6187 8.79271 26.3711L14.7892 29.7062C16.0693 30.4136 18.1692 30.4136 19.4493 29.7062L25.4458 26.3711C26.8045 25.6187 27.9162 23.7322 27.9162 22.1825V15.838C27.9162 14.2883 26.8045 12.4018 25.4458 11.6495L19.4493 8.31435C18.158 7.6069 16.0693 7.6069 14.7892 8.32558Z" stroke="white" stroke-width="2" stroke-linecap="round" stroke-linejoin="round"/>
<path d="M37.1002 12.9996C35.9939 11.7555 34.4488 11.0703 32.7433 11.0703C31.0288 11.0703 29.4785 11.7513 28.3774 12.9878C27.2643 14.2378 26.722 15.9368 26.8493 17.7713C27.1017 21.3907 29.7457 24.3349 32.7433 24.3349C35.741 24.3349 38.3804 21.3913 38.6368 17.7725C38.7659 15.9545 38.2201 14.2592 37.1002 12.9996Z" fill="black"/>
<path d="M42.7481 37.6001H22.7374C22.4755 37.6037 22.2161 37.5464 21.9782 37.4324C21.7402 37.3184 21.5296 37.1505 21.3617 36.9411C20.9922 36.4809 20.8433 35.8527 20.9535 35.2173C21.4333 32.4447 22.9307 30.1157 25.2843 28.4807C27.3751 27.0293 30.0237 26.2305 32.7428 26.2305C35.4618 26.2305 38.1104 27.0299 40.2013 28.4807C42.5548 30.1151 44.0522 32.4441 44.532 35.2167C44.6423 35.8521 44.4933 36.4804 44.1238 36.9405C43.956 37.15 43.7454 37.318 43.5074 37.4321C43.2695 37.5462 43.01 37.6036 42.7481 37.6001Z" fill="black"/>
</svg>
