<svg width="49" height="41" viewBox="0 0 49 41" fill="none" xmlns="http://www.w3.org/2000/svg">
<path d="M20.0108 39.4981C30.3926 39.4981 38.8087 31.082 38.8087 20.7002C38.8087 10.3184 30.3926 1.90234 20.0108 1.90234C9.629 1.90234 1.21289 10.3184 1.21289 20.7002C1.21289 31.082 9.629 39.4981 20.0108 39.4981Z" fill="#C41320"/>
<path fill-rule="evenodd" clip-rule="evenodd" d="M19.7507 6.75391L17.4984 17.8718H24.2552L12.9938 33.4348L15.2461 22.3179H8.48926L19.7507 6.75391Z" fill="white"/>
<path d="M38.3131 14.2105C37.2068 12.9664 35.6617 12.2812 33.9562 12.2812C32.2417 12.2812 30.6914 12.9622 29.5903 14.1987C28.4772 15.4488 27.9349 17.1477 28.0622 18.9823C28.3146 22.6016 30.9586 25.5459 33.9562 25.5459C36.9538 25.5459 39.5933 22.6022 39.8497 18.9834C39.9788 17.1655 39.433 15.4701 38.3131 14.2105Z" fill="black"/>
<path d="M43.961 38.8111H23.9503C23.6884 38.8146 23.429 38.7573 23.191 38.6433C22.9531 38.5293 22.7425 38.3615 22.5746 38.152C22.2051 37.6919 22.0561 37.0636 22.1664 36.4282C22.6462 33.6556 24.1436 31.3266 26.4971 29.6917C28.588 28.2402 31.2366 27.4414 33.9557 27.4414C36.6747 27.4414 39.3233 28.2408 41.4142 29.6917C43.7677 31.326 45.2651 33.6551 45.7449 36.4276C45.8552 37.063 45.7062 37.6913 45.3367 38.1514C45.1689 38.361 44.9583 38.5289 44.7203 38.643C44.4824 38.7572 44.2229 38.8146 43.961 38.8111Z" fill="black"/>
</svg>
